<svg width="1014" height="140" viewBox="0 0 1014 140" fill="none" xmlns="http://www.w3.org/2000/svg">
<mask id="path-1-outside-1_3_1239" maskUnits="userSpaceOnUse" x="5.24882" y="64.9335" width="45.3162" height="53.216" fill="black">
<rect fill="white" x="5.24882" y="64.9335" width="45.3162" height="53.216"/>
<path d="M42.5728 81.4867C43.04 83.8815 42.9194 86.1873 42.2108 88.4041C41.4946 90.5815 40.1166 92.5009 38.0771 94.1623C36.0375 95.8236 33.3295 96.9837 29.9532 97.6425L23.7109 98.8605L26.6066 113.701L16.5365 115.666L8.47003 74.3252L24.7824 71.1423C28.0802 70.4988 30.9787 70.5242 33.4779 71.2184C35.9771 71.9126 37.9914 73.1498 39.5206 74.9299C41.0498 76.71 42.0672 78.8956 42.5728 81.4867ZM27.6249 89.7829C29.5486 89.4076 30.8935 88.6765 31.6595 87.5897C32.4256 86.5028 32.6477 85.135 32.326 83.4861C32.0043 81.8372 31.2842 80.6532 30.1658 79.934C29.0473 79.2149 27.5263 79.043 25.6025 79.4184L20.1258 80.487L22.1482 90.8516L27.6249 89.7829Z"/>
</mask>
<path d="M42.5728 81.4867C43.04 83.8815 42.9194 86.1873 42.2108 88.4041C41.4946 90.5815 40.1166 92.5009 38.0771 94.1623C36.0375 95.8236 33.3295 96.9837 29.9532 97.6425L23.7109 98.8605L26.6066 113.701L16.5365 115.666L8.47003 74.3252L24.7824 71.1423C28.0802 70.4988 30.9787 70.5242 33.4779 71.2184C35.9771 71.9126 37.9914 73.1498 39.5206 74.9299C41.0498 76.71 42.0672 78.8956 42.5728 81.4867ZM27.6249 89.7829C29.5486 89.4076 30.8935 88.6765 31.6595 87.5897C32.4256 86.5028 32.6477 85.135 32.326 83.4861C32.0043 81.8372 31.2842 80.6532 30.1658 79.934C29.0473 79.2149 27.5263 79.043 25.6025 79.4184L20.1258 80.487L22.1482 90.8516L27.6249 89.7829Z" fill="#FB3318"/>
<path d="M42.2108 88.4041L44.1107 89.029L44.1133 89.021L44.1158 89.013L42.2108 88.4041ZM38.0771 94.1623L36.814 92.6116L36.814 92.6116L38.0771 94.1623ZM23.7109 98.8605L23.3279 96.8975L21.3649 97.2806L21.7479 99.2435L23.7109 98.8605ZM26.6066 113.701L26.9896 115.664L28.9526 115.281L28.5695 113.318L26.6066 113.701ZM16.5365 115.666L14.5735 116.049L14.9565 118.012L16.9195 117.629L16.5365 115.666ZM8.47003 74.3252L8.08701 72.3622L6.12402 72.7452L6.50705 74.7082L8.47003 74.3252ZM33.4779 71.2184L34.0132 69.2914L34.0132 69.2914L33.4779 71.2184ZM30.1658 79.934L29.0841 81.6163L30.1658 79.934ZM20.1258 80.487L19.7428 78.524L17.7798 78.9071L18.1628 80.87L20.1258 80.487ZM22.1482 90.8516L20.1852 91.2346L20.5682 93.1976L22.5312 92.8145L22.1482 90.8516ZM40.6098 81.8697C41.0159 83.9509 40.9069 85.9146 40.3058 87.7951L44.1158 89.013C44.9319 86.46 45.0642 83.8122 44.5357 81.1037L40.6098 81.8697ZM40.3109 87.7791C39.731 89.5423 38.602 91.1552 36.814 92.6116L39.3402 95.713C41.6313 93.8467 43.2581 91.6208 44.1107 89.029L40.3109 87.7791ZM36.814 92.6116C35.0958 94.0112 32.7198 95.065 29.5702 95.6795L30.3362 99.6055C33.9393 98.9025 36.9792 97.6361 39.3402 95.713L36.814 92.6116ZM29.5702 95.6795L23.3279 96.8975L24.0939 100.824L30.3362 99.6055L29.5702 95.6795ZM21.7479 99.2435L24.6436 114.084L28.5695 113.318L25.6739 98.4775L21.7479 99.2435ZM26.2235 111.738L16.1534 113.703L16.9195 117.629L26.9896 115.664L26.2235 111.738ZM18.4994 115.283L10.433 73.9422L6.50705 74.7082L14.5735 116.049L18.4994 115.283ZM8.85305 76.2882L25.1654 73.1053L24.3994 69.1793L8.08701 72.3622L8.85305 76.2882ZM25.1654 73.1053C28.2454 72.5043 30.8176 72.5551 32.9426 73.1454L34.0132 69.2914C31.1398 68.4932 27.915 68.4933 24.3994 69.1793L25.1654 73.1053ZM32.9426 73.1454C35.1019 73.7452 36.7594 74.785 38.0035 76.2331L41.0376 73.6266C39.2233 71.5146 36.8524 70.08 34.0132 69.2914L32.9426 73.1454ZM38.0035 76.2331C39.2797 77.7187 40.1621 79.5755 40.6098 81.8697L44.5357 81.1037C43.9722 78.2157 42.8198 75.7012 41.0376 73.6266L38.0035 76.2331ZM28.0079 91.7459C30.2006 91.3181 32.1162 90.4133 33.2943 88.7419L30.0248 86.4374C29.6708 86.9397 28.8967 87.4971 27.2419 87.82L28.0079 91.7459ZM33.2943 88.7419C34.4525 87.0987 34.686 85.1377 34.289 83.1031L30.363 83.8691C30.6095 85.1323 30.3987 85.907 30.0248 86.4374L33.2943 88.7419ZM34.289 83.1031C33.892 81.0684 32.9384 79.339 31.2474 78.2518L29.0841 81.6163C29.63 81.9673 30.1165 82.6059 30.363 83.8691L34.289 83.1031ZM31.2474 78.2518C29.5274 77.1458 27.4122 77.0276 25.2195 77.4554L25.9856 81.3814C27.6404 81.0585 28.5673 81.284 29.0841 81.6163L31.2474 78.2518ZM25.2195 77.4554L19.7428 78.524L20.5089 82.45L25.9856 81.3814L25.2195 77.4554ZM18.1628 80.87L20.1852 91.2346L24.1112 90.4685L22.0888 80.104L18.1628 80.87ZM22.5312 92.8145L28.0079 91.7459L27.2419 87.82L21.7652 88.8886L22.5312 92.8145Z" fill="white" mask="url(#path-1-outside-1_3_1239)"/>
<mask id="path-3-outside-2_3_1239" maskUnits="userSpaceOnUse" x="48.2175" y="56.7441" width="47.7219" height="54.2125" fill="black">
<rect fill="white" x="48.2175" y="56.7441" width="47.7219" height="54.2125"/>
<path d="M61.3231 64.3L65.6956 89.1178C66.1329 91.5996 67.0801 93.4026 68.5373 94.5268C69.9944 95.651 71.9048 96.0049 74.2684 95.5884C76.632 95.172 78.3261 94.1831 79.3507 92.6216C80.3753 91.0601 80.669 89.0385 80.2317 86.5567L75.8592 61.739L85.9636 59.9587L90.3257 84.7174C90.9781 88.4204 90.742 91.6909 89.6174 94.5291C88.4928 97.3673 86.7057 99.6724 84.256 101.444C81.8457 103.209 79.0057 104.38 75.7361 104.956C72.4664 105.532 69.4206 105.419 66.5985 104.616C63.8089 103.767 61.4401 102.195 59.492 99.8977C57.537 97.5615 56.2333 94.5419 55.5809 90.839L51.2187 66.0803L61.3231 64.3Z"/>
</mask>
<path d="M61.3231 64.3L65.6956 89.1178C66.1329 91.5996 67.0801 93.4026 68.5373 94.5268C69.9944 95.651 71.9048 96.0049 74.2684 95.5884C76.632 95.172 78.3261 94.1831 79.3507 92.6216C80.3753 91.0601 80.669 89.0385 80.2317 86.5567L75.8592 61.739L85.9636 59.9587L90.3257 84.7174C90.9781 88.4204 90.742 91.6909 89.6174 94.5291C88.4928 97.3673 86.7057 99.6724 84.256 101.444C81.8457 103.209 79.0057 104.38 75.7361 104.956C72.4664 105.532 69.4206 105.419 66.5985 104.616C63.8089 103.767 61.4401 102.195 59.492 99.8977C57.537 97.5615 56.2333 94.5419 55.5809 90.839L51.2187 66.0803L61.3231 64.3Z" fill="#FB3318"/>
<path d="M61.3231 64.3L63.2927 63.953L62.9457 61.9833L60.9761 62.3304L61.3231 64.3ZM68.5373 94.5268L67.3156 96.1103L67.3156 96.1103L68.5373 94.5268ZM79.3507 92.6216L81.0229 93.7188L81.0229 93.7188L79.3507 92.6216ZM75.8592 61.739L75.5122 59.7693L73.5425 60.1163L73.8895 62.086L75.8592 61.739ZM85.9636 59.9587L87.9332 59.6117L87.5862 57.642L85.6165 57.9891L85.9636 59.9587ZM89.6174 94.5291L91.4768 95.2659L91.4768 95.2659L89.6174 94.5291ZM84.256 101.444L83.0838 99.8238L83.0744 99.8307L84.256 101.444ZM66.5985 104.616L66.0163 106.53L66.0338 106.535L66.0515 106.54L66.5985 104.616ZM59.492 99.8977L57.9582 101.181L57.9667 101.191L59.492 99.8977ZM51.2187 66.0803L50.8717 64.1106L48.902 64.4577L49.249 66.4273L51.2187 66.0803ZM59.3534 64.6471L63.726 89.4648L67.6653 88.7708L63.2927 63.953L59.3534 64.6471ZM63.726 89.4648C64.2175 92.2546 65.3378 94.5844 67.3156 96.1103L69.759 92.9433C68.8224 92.2207 68.0483 90.9445 67.6653 88.7708L63.726 89.4648ZM67.3156 96.1103C69.3435 97.6748 71.8759 98.0408 74.6154 97.5581L73.9214 93.6188C71.9338 93.969 70.6454 93.6272 69.759 92.9433L67.3156 96.1103ZM74.6154 97.5581C77.3586 97.0748 79.6153 95.8639 81.0229 93.7188L77.6786 91.5244C77.0369 92.5022 75.9055 93.2692 73.9214 93.6188L74.6154 97.5581ZM81.0229 93.7188C82.4127 91.6007 82.6956 89.0146 82.2014 86.2097L78.2621 86.9038C78.6424 89.0624 78.3379 90.5195 77.6786 91.5244L81.0229 93.7188ZM82.2014 86.2097L77.8289 61.3919L73.8895 62.086L78.2621 86.9038L82.2014 86.2097ZM76.2062 63.7086L86.3106 61.9284L85.6165 57.9891L75.5122 59.7693L76.2062 63.7086ZM83.9939 60.3058L88.356 85.0644L92.2954 84.3704L87.9332 59.6117L83.9939 60.3058ZM88.356 85.0644C88.9591 88.4872 88.7179 91.37 87.7581 93.7924L91.4768 95.2659C92.7661 92.0118 92.9971 88.3535 92.2954 84.3704L88.356 85.0644ZM87.7581 93.7924C86.7723 96.2802 85.2218 98.2773 83.0838 99.8238L85.4281 103.065C88.1895 101.067 90.2134 98.4544 91.4768 95.2659L87.7581 93.7924ZM83.0744 99.8307C80.9377 101.395 78.3909 102.457 75.389 102.986L76.0831 106.926C79.6205 106.302 82.7536 105.023 85.4376 103.058L83.0744 99.8307ZM75.389 102.986C72.3777 103.517 69.6407 103.402 67.1456 102.692L66.0515 106.54C69.2004 107.435 72.5552 107.547 76.0831 106.926L75.389 102.986ZM67.1807 102.703C64.771 101.97 62.7256 100.618 61.0173 98.6041L57.9667 101.191C60.1546 103.771 62.8468 105.565 66.0163 106.53L67.1807 102.703ZM61.0258 98.6142C59.3426 96.6028 58.1563 93.9301 57.5505 90.4919L53.6112 91.186C54.3103 95.1537 55.7314 98.5202 57.9582 101.181L61.0258 98.6142ZM57.5505 90.4919L53.1884 65.7333L49.249 66.4273L53.6112 91.186L57.5505 90.4919ZM51.5657 68.05L61.6701 66.2697L60.9761 62.3304L50.8717 64.1106L51.5657 68.05Z" fill="white" mask="url(#path-3-outside-2_3_1239)"/>
<mask id="path-5-outside-3_3_1239" maskUnits="userSpaceOnUse" x="94.2721" y="49.7135" width="44.8609" height="52.3482" fill="black">
<rect fill="white" x="94.2721" y="49.7135" width="44.8609" height="52.3482"/>
<path d="M129.313 53.0228L130.594 61.1423L119.571 62.8817L124.854 96.3674L114.719 97.9665L109.436 64.4808L98.4123 66.2201L97.1312 58.1006L129.313 53.0228Z"/>
</mask>
<path d="M129.313 53.0228L130.594 61.1423L119.571 62.8817L124.854 96.3674L114.719 97.9665L109.436 64.4808L98.4123 66.2201L97.1312 58.1006L129.313 53.0228Z" fill="#FB3318"/>
<path d="M129.313 53.0228L131.289 52.7111L130.977 50.7355L129.001 51.0472L129.313 53.0228ZM130.594 61.1423L130.906 63.1179L132.881 62.8062L132.57 60.8306L130.594 61.1423ZM119.571 62.8817L119.259 60.9061L117.283 61.2178L117.595 63.1934L119.571 62.8817ZM124.854 96.3674L125.166 98.343L127.141 98.0313L126.83 96.0557L124.854 96.3674ZM114.719 97.9665L112.744 98.2782L113.056 100.254L115.031 99.9421L114.719 97.9665ZM109.436 64.4808L111.412 64.169L111.1 62.1935L109.124 62.5052L109.436 64.4808ZM98.4123 66.2201L96.4368 66.5318L96.7485 68.5074L98.724 68.1957L98.4123 66.2201ZM97.1312 58.1006L96.8195 56.125L94.8439 56.4367L95.1556 58.4123L97.1312 58.1006ZM127.337 53.3345L128.619 61.454L132.57 60.8306L131.289 52.7111L127.337 53.3345ZM130.282 59.1668L119.259 60.9061L119.882 64.8572L130.906 63.1179L130.282 59.1668ZM117.595 63.1934L122.879 96.6791L126.83 96.0557L121.546 62.57L117.595 63.1934ZM124.542 94.3918L114.408 95.9909L115.031 99.9421L125.166 98.343L124.542 94.3918ZM116.695 97.6548L111.412 64.169L107.46 64.7925L112.744 98.2782L116.695 97.6548ZM109.124 62.5052L98.1006 64.2446L98.724 68.1957L109.748 66.4563L109.124 62.5052ZM100.388 65.9084L99.1067 57.7889L95.1556 58.4123L96.4368 66.5318L100.388 65.9084ZM97.4429 60.0761L129.625 54.9983L129.001 51.0472L96.8195 56.125L97.4429 60.0761Z" fill="white" mask="url(#path-5-outside-3_3_1239)"/>
<mask id="path-7-outside-4_3_1239" maskUnits="userSpaceOnUse" x="153.654" y="40.3616" width="52.8568" height="53.7179" fill="black">
<rect fill="white" x="153.654" y="40.3616" width="52.8568" height="53.7179"/>
<path d="M159.722 69.7769C159.18 65.6524 159.59 61.8666 160.952 58.4196C162.309 54.9329 164.457 52.0887 167.395 49.8868C170.367 47.6401 173.876 46.2508 177.921 45.7189C182.878 45.067 187.294 45.8177 191.168 47.9711C195.042 50.1244 197.871 53.3834 199.655 57.748L188.471 59.2186C187.409 57.5832 186.044 56.4111 184.378 55.7023C182.751 54.9883 180.966 54.7591 179.022 55.0146C175.889 55.4266 173.495 56.851 171.838 59.2877C170.182 61.7245 169.593 64.7672 170.073 68.4158C170.553 72.0644 171.908 74.8515 174.138 76.7772C176.368 78.7029 179.05 79.4597 182.183 79.0477C184.126 78.7922 185.791 78.1093 187.178 76.999C188.605 75.8834 189.62 74.3984 190.223 72.5439L201.407 71.0733C200.812 75.7508 198.921 79.6304 195.736 82.712C192.545 85.7539 188.471 87.6008 183.514 88.2527C179.469 88.7846 175.723 88.3695 172.276 87.0073C168.863 85.6002 166.053 83.4078 163.846 80.4301C161.639 77.4525 160.265 73.9014 159.722 69.7769Z"/>
</mask>
<path d="M159.722 69.7769C159.18 65.6524 159.59 61.8666 160.952 58.4196C162.309 54.9329 164.457 52.0887 167.395 49.8868C170.367 47.6401 173.876 46.2508 177.921 45.7189C182.878 45.067 187.294 45.8177 191.168 47.9711C195.042 50.1244 197.871 53.3834 199.655 57.748L188.471 59.2186C187.409 57.5832 186.044 56.4111 184.378 55.7023C182.751 54.9883 180.966 54.7591 179.022 55.0146C175.889 55.4266 173.495 56.851 171.838 59.2877C170.182 61.7245 169.593 64.7672 170.073 68.4158C170.553 72.0644 171.908 74.8515 174.138 76.7772C176.368 78.7029 179.05 79.4597 182.183 79.0477C184.126 78.7922 185.791 78.1093 187.178 76.999C188.605 75.8834 189.62 74.3984 190.223 72.5439L201.407 71.0733C200.812 75.7508 198.921 79.6304 195.736 82.712C192.545 85.7539 188.471 87.6008 183.514 88.2527C179.469 88.7846 175.723 88.3695 172.276 87.0073C168.863 85.6002 166.053 83.4078 163.846 80.4301C161.639 77.4525 160.265 73.9014 159.722 69.7769Z" fill="#FB3318"/>
<path d="M160.952 58.4196L162.812 59.1547L162.816 59.145L160.952 58.4196ZM167.395 49.8868L168.594 51.4873L168.601 51.4824L167.395 49.8868ZM191.168 47.9711L192.139 46.223L192.139 46.223L191.168 47.9711ZM199.655 57.748L199.916 59.7309L202.488 59.3927L201.506 56.9912L199.655 57.748ZM188.471 59.2186L186.794 60.3081L187.481 61.366L188.732 61.2016L188.471 59.2186ZM184.378 55.7023L183.574 57.5337L183.585 57.5383L183.595 57.5428L184.378 55.7023ZM171.838 59.2877L173.492 60.4121L173.492 60.4121L171.838 59.2877ZM187.178 76.999L185.946 75.4234L185.937 75.4304L185.928 75.4376L187.178 76.999ZM190.223 72.5439L189.963 70.561L188.712 70.7255L188.321 71.9251L190.223 72.5439ZM201.407 71.0733L203.391 71.3258L203.719 68.7521L201.146 69.0904L201.407 71.0733ZM195.736 82.712L197.116 84.1595L197.121 84.1545L197.127 84.1494L195.736 82.712ZM172.276 87.0073L171.513 88.8563L171.527 88.8619L171.541 88.8673L172.276 87.0073ZM163.846 80.4301L165.453 79.2392L165.453 79.2392L163.846 80.4301ZM161.705 69.5161C161.202 65.6866 161.589 62.2484 162.812 59.1547L159.092 57.6846C157.59 61.4848 157.158 65.6181 157.739 70.0376L161.705 69.5161ZM162.816 59.145C164.04 55.9993 165.961 53.4607 168.594 51.4873L166.195 48.2864C162.952 50.7166 160.578 53.8666 159.088 57.6942L162.816 59.145ZM168.601 51.4824C171.271 49.4639 174.446 48.193 178.182 47.7018L177.66 43.7359C173.305 44.3086 169.463 45.8164 166.189 48.2913L168.601 51.4824ZM178.182 47.7018C182.771 47.0984 186.745 47.8006 190.196 49.7191L192.139 46.223C187.843 43.8349 182.986 43.0356 177.66 43.7359L178.182 47.7018ZM190.196 49.7191C193.646 51.6369 196.179 54.5321 197.804 58.5048L201.506 56.9912C199.562 52.2347 196.437 48.6119 192.139 46.223L190.196 49.7191ZM199.394 55.7651L188.21 57.2357L188.732 61.2016L199.916 59.7309L199.394 55.7651ZM190.148 58.1292C188.887 56.1868 187.222 54.7384 185.16 53.8618L183.595 57.5428C184.867 58.0837 185.931 58.9795 186.794 60.3081L190.148 58.1292ZM185.181 53.8709C183.186 52.9953 181.028 52.7336 178.762 53.0317L179.283 56.9976C180.903 56.7846 182.315 56.9813 183.574 57.5337L185.181 53.8709ZM178.762 53.0317C175.109 53.512 172.187 55.2176 170.184 58.1634L173.492 60.4121C174.803 58.4844 176.669 57.3412 179.283 56.9976L178.762 53.0317ZM170.184 58.1634C168.188 61.0998 167.563 64.6673 168.09 68.6765L172.056 68.155C171.624 64.8671 172.175 62.3492 173.492 60.4121L170.184 58.1634ZM168.09 68.6765C168.617 72.6858 170.143 75.9704 172.831 78.2909L175.445 75.2634C173.672 73.7326 172.488 71.443 172.056 68.155L168.09 68.6765ZM172.831 78.2909C175.527 80.6189 178.791 81.511 182.443 81.0307L181.922 77.0648C179.308 77.4085 177.209 76.7869 175.445 75.2634L172.831 78.2909ZM182.443 81.0307C184.71 80.7326 186.727 79.9219 188.428 78.5603L185.928 75.4376C184.855 76.2966 183.542 76.8518 181.922 77.0648L182.443 81.0307ZM188.41 78.5745C190.175 77.1948 191.409 75.3652 192.125 73.1627L188.321 71.9251C187.831 73.4316 187.035 74.572 185.946 75.4234L188.41 78.5745ZM190.484 74.5269L201.668 73.0562L201.146 69.0904L189.963 70.561L190.484 74.5269ZM199.423 70.8208C198.881 75.0783 197.182 78.53 194.345 81.2745L197.127 84.1494C200.661 80.7307 202.742 76.4233 203.391 71.3258L199.423 70.8208ZM194.356 81.2644C191.513 83.9753 187.849 85.6655 183.253 86.2698L183.775 90.2356C189.094 89.5362 193.578 87.5325 197.116 84.1595L194.356 81.2644ZM183.253 86.2698C179.51 86.762 176.111 86.3723 173.011 85.1473L171.541 88.8673C175.335 90.3667 179.427 90.8073 183.775 90.2356L183.253 86.2698ZM173.038 85.1583C169.963 83.8903 167.445 81.9261 165.453 79.2392L162.24 81.6211C164.662 84.8895 167.763 87.31 171.513 88.8563L173.038 85.1583ZM165.453 79.2392C163.472 76.5667 162.209 73.3456 161.705 69.5161L157.739 70.0376C158.32 74.4571 159.806 78.3382 162.24 81.6211L165.453 79.2392Z" fill="white" mask="url(#path-7-outside-4_3_1239)"/>
<mask id="path-9-outside-5_3_1239" maskUnits="userSpaceOnUse" x="205.096" y="34.3848" width="53.9659" height="53.0815" fill="black">
<rect fill="white" x="205.096" y="34.3848" width="53.9659" height="53.0815"/>
<path d="M234.566 82.2012C230.629 82.6352 226.911 82.1197 223.409 80.6547C219.947 79.1853 217.062 76.9279 214.754 73.8825C212.482 70.7929 211.12 67.2006 210.669 63.1054C210.217 59.0102 210.766 55.2273 212.315 51.7566C213.903 48.2815 216.227 45.4498 219.285 43.2614C222.384 41.0686 225.901 39.7551 229.837 39.3211C233.773 38.887 237.472 39.4047 240.934 40.8741C244.436 42.3392 247.301 44.5987 249.529 47.6529C251.797 50.7027 253.157 54.2752 253.608 58.3704C254.06 62.4656 253.513 66.2684 251.969 69.7788C250.42 73.2495 248.116 76.079 245.058 78.2675C241.999 80.4559 238.502 81.7671 234.566 82.2012ZM233.54 72.8976C236.879 72.5293 239.421 71.1223 241.163 68.6766C242.945 66.2265 243.635 63.1725 243.231 59.5147C242.823 55.8171 241.485 52.9867 239.216 51.0236C236.983 49.0163 234.196 48.1968 230.856 48.5651C227.477 48.9377 224.894 50.3292 223.107 52.7396C221.361 55.1455 220.693 58.2172 221.105 61.9545C221.513 65.6521 222.834 68.5046 225.067 70.5118C227.336 72.475 230.16 73.2702 233.54 72.8976Z"/>
</mask>
<path d="M234.566 82.2012C230.629 82.6352 226.911 82.1197 223.409 80.6547C219.947 79.1853 217.062 76.9279 214.754 73.8825C212.482 70.7929 211.12 67.2006 210.669 63.1054C210.217 59.0102 210.766 55.2273 212.315 51.7566C213.903 48.2815 216.227 45.4498 219.285 43.2614C222.384 41.0686 225.901 39.7551 229.837 39.3211C233.773 38.887 237.472 39.4047 240.934 40.8741C244.436 42.3392 247.301 44.5987 249.529 47.6529C251.797 50.7027 253.157 54.2752 253.608 58.3704C254.06 62.4656 253.513 66.2684 251.969 69.7788C250.42 73.2495 248.116 76.079 245.058 78.2675C241.999 80.4559 238.502 81.7671 234.566 82.2012ZM233.54 72.8976C236.879 72.5293 239.421 71.1223 241.163 68.6766C242.945 66.2265 243.635 63.1725 243.231 59.5147C242.823 55.8171 241.485 52.9867 239.216 51.0236C236.983 49.0163 234.196 48.1968 230.856 48.5651C227.477 48.9377 224.894 50.3292 223.107 52.7396C221.361 55.1455 220.693 58.2172 221.105 61.9545C221.513 65.6521 222.834 68.5046 225.067 70.5118C227.336 72.475 230.16 73.2702 233.54 72.8976Z" fill="#FB3318"/>
<path d="M223.409 80.6547L222.627 82.4958L222.637 82.4997L223.409 80.6547ZM214.754 73.8825L213.143 75.0675L213.152 75.079L213.16 75.0904L214.754 73.8825ZM212.315 51.7566L210.496 50.9251L210.492 50.9333L210.488 50.9415L212.315 51.7566ZM219.285 43.2614L218.13 41.6288L218.122 41.6348L219.285 43.2614ZM240.934 40.8741L240.153 42.7152L240.162 42.7192L240.934 40.8741ZM249.529 47.6529L247.913 48.8317L247.919 48.8391L247.924 48.8464L249.529 47.6529ZM251.969 69.7788L253.795 70.5939L253.8 70.5843L251.969 69.7788ZM245.058 78.2675L246.221 79.894L246.221 79.894L245.058 78.2675ZM241.163 68.6766L239.546 67.5001L239.54 67.5081L239.534 67.5161L241.163 68.6766ZM239.216 51.0236L237.879 52.5111L237.893 52.5237L237.908 52.536L239.216 51.0236ZM223.107 52.7396L221.501 51.5486L221.495 51.5566L221.489 51.5645L223.107 52.7396ZM225.067 70.5118L223.73 71.9994L223.744 72.012L223.758 72.0243L225.067 70.5118ZM234.346 80.2132C230.732 80.6118 227.356 80.138 224.181 78.8097L222.637 82.4997C226.465 84.1014 230.527 84.6587 234.785 84.1891L234.346 80.2132ZM224.19 78.8137C221.055 77.483 218.449 75.4463 216.348 72.6746L213.16 75.0904C215.676 78.4095 218.839 80.8876 222.627 82.4957L224.19 78.8137ZM216.366 72.6975C214.317 69.9122 213.073 66.6588 212.657 62.8862L208.681 63.3246C209.168 67.7424 210.647 71.6737 213.143 75.0675L216.366 72.6975ZM212.657 62.8862C212.241 59.1134 212.749 55.691 214.141 52.5717L210.488 50.9415C208.783 54.7635 208.194 58.9071 208.681 63.3246L212.657 62.8862ZM214.134 52.5882C215.579 49.4254 217.679 46.8697 220.449 44.8879L218.122 41.6348C214.774 44.0299 212.227 47.1377 210.496 50.9251L214.134 52.5882ZM220.441 44.8939C223.25 42.9056 226.442 41.7076 230.056 41.309L229.618 37.3331C225.36 37.8027 221.517 39.2315 218.13 41.6289L220.441 44.8939ZM230.056 41.309C233.671 40.9105 237.023 41.3868 240.153 42.7152L241.716 39.0331C237.921 37.4226 233.876 36.8636 229.618 37.3331L230.056 41.309ZM240.162 42.7192C243.329 44.0439 245.901 46.0737 247.913 48.8317L251.145 46.4742C248.7 43.1238 245.543 40.6344 241.706 39.0291L240.162 42.7192ZM247.924 48.8464C249.962 51.5874 251.204 54.8168 251.62 58.5896L255.596 58.1512C255.109 53.7336 253.631 49.818 251.134 46.4595L247.924 48.8464ZM251.62 58.5896C252.036 62.3622 251.531 65.8086 250.138 68.9734L253.8 70.5843C255.496 66.7282 256.083 62.569 255.596 58.1512L251.62 58.5896ZM250.143 68.9637C248.737 72.1135 246.66 74.6616 243.894 76.6409L246.221 79.894C249.572 77.4965 252.103 74.3855 253.795 70.5939L250.143 68.9637ZM243.894 76.6409C241.129 78.6193 237.961 79.8147 234.346 80.2132L234.785 84.1891C239.043 83.7196 242.869 82.2925 246.221 79.894L243.894 76.6409ZM233.759 74.8855C237.59 74.4631 240.677 72.8049 242.792 69.8371L239.534 67.5161C238.164 69.4397 236.169 70.5955 233.32 70.9096L233.759 74.8855ZM242.78 69.853C244.916 66.9176 245.665 63.3367 245.219 59.2955L241.243 59.7339C241.604 63.0083 240.975 65.5353 239.546 67.5001L242.78 69.853ZM245.219 59.2955C244.77 55.2225 243.261 51.8788 240.525 49.5111L237.908 52.536C239.709 54.0947 240.877 56.4117 241.243 59.7339L245.219 59.2955ZM240.553 49.536C237.843 47.1002 234.468 46.1547 230.637 46.5771L231.076 50.553C233.924 50.2389 236.123 50.9323 237.879 52.5111L240.553 49.536ZM230.637 46.5771C226.786 47.0018 223.664 48.6294 221.501 51.5486L224.714 53.9305C226.123 52.0291 228.168 50.8736 231.076 50.553L230.637 46.5771ZM221.489 51.5645C219.378 54.4714 218.666 58.0776 219.117 62.1737L223.093 61.7353C222.721 58.3568 223.343 55.8196 224.726 53.9146L221.489 51.5645ZM219.117 62.1737C219.566 66.2382 221.05 69.5902 223.73 71.9994L226.404 69.0243C224.618 67.4189 223.461 65.066 223.093 61.7353L219.117 62.1737ZM223.758 72.0243C226.506 74.4019 229.907 75.3102 233.759 74.8855L233.32 70.9096C230.413 71.2302 228.166 70.5481 226.376 68.9994L223.758 72.0243Z" fill="white" mask="url(#path-9-outside-5_3_1239)"/>
<mask id="path-11-outside-6_3_1239" maskUnits="userSpaceOnUse" x="260.511" y="31.1227" width="33.2097" height="49.4735" fill="black">
<rect fill="white" x="260.511" y="31.1227" width="33.2097" height="49.4735"/>
<path d="M276.855 69.5217L290.237 68.2826L290.968 76.1689L267.368 78.354L263.485 36.4133L273.701 35.4674L276.855 69.5217Z"/>
</mask>
<path d="M276.855 69.5217L290.237 68.2826L290.968 76.1689L267.368 78.354L263.485 36.4133L273.701 35.4674L276.855 69.5217Z" fill="#FB3318"/>
<path d="M276.855 69.5217L274.863 69.7061L275.048 71.6976L277.039 71.5132L276.855 69.5217ZM290.237 68.2826L292.229 68.0982L292.044 66.1068L290.053 66.2911L290.237 68.2826ZM290.968 76.1689L291.152 78.1604L293.143 77.976L292.959 75.9845L290.968 76.1689ZM267.368 78.354L265.377 78.5383L265.561 80.5298L267.553 80.3454L267.368 78.354ZM263.485 36.4133L263.301 34.4219L261.309 34.6063L261.494 36.5977L263.485 36.4133ZM273.701 35.4674L275.693 35.283L275.509 33.2915L273.517 33.4759L273.701 35.4674ZM277.039 71.5132L290.422 70.2741L290.053 66.2911L276.67 67.5303L277.039 71.5132ZM288.246 68.467L288.976 76.3533L292.959 75.9845L292.229 68.0982L288.246 68.467ZM290.783 74.1774L267.184 76.3625L267.553 80.3454L291.152 78.1604L290.783 74.1774ZM269.36 78.1696L265.477 36.229L261.494 36.5977L265.377 78.5383L269.36 78.1696ZM263.67 38.4048L273.886 37.4589L273.517 33.4759L263.301 34.4219L263.67 38.4048ZM271.71 35.6518L274.863 69.7061L278.846 69.3374L275.693 35.283L271.71 35.6518Z" fill="white" mask="url(#path-11-outside-6_3_1239)"/>
<mask id="path-13-outside-7_3_1239" maskUnits="userSpaceOnUse" x="293.104" y="27.0648" width="52.4513" height="51.5288" fill="black">
<rect fill="white" x="293.104" y="27.0648" width="52.4513" height="51.5288"/>
<path d="M321.07 74.1788C317.121 74.4748 313.423 73.8295 309.974 72.2429C306.566 70.6532 303.762 68.2962 301.562 65.1719C299.4 62.0048 298.164 58.3669 297.856 54.2585C297.548 50.15 298.229 46.3886 299.898 42.9742C301.608 39.5569 304.029 36.8082 307.162 34.7281C310.335 32.6451 313.896 31.4555 317.845 31.1595C321.794 30.8635 325.473 31.5103 328.881 33.0999C332.329 34.6866 335.114 37.045 337.233 40.1753C339.393 43.3026 340.627 46.9205 340.935 51.0289C341.243 55.1374 340.564 58.9188 338.898 62.373C337.228 65.7874 334.827 68.5346 331.694 70.6146C328.56 72.6947 325.019 73.8827 321.07 74.1788ZM320.371 64.845C323.721 64.5938 326.31 63.2766 328.137 60.8933C330.004 58.5071 330.8 55.4791 330.524 51.8094C330.246 48.0998 329.008 45.2244 326.809 43.183C324.647 41.0988 321.891 40.1823 318.54 40.4335C315.15 40.6876 312.52 41.9879 310.65 44.3343C308.82 46.6776 308.046 49.724 308.327 53.4735C308.605 57.1831 309.825 60.08 311.987 62.1642C314.185 64.2056 316.98 65.0991 320.371 64.845Z"/>
</mask>
<path d="M321.07 74.1788C317.121 74.4748 313.423 73.8295 309.974 72.2429C306.566 70.6532 303.762 68.2962 301.562 65.1719C299.4 62.0048 298.164 58.3669 297.856 54.2585C297.548 50.15 298.229 46.3886 299.898 42.9742C301.608 39.5569 304.029 36.8082 307.162 34.7281C310.335 32.6451 313.896 31.4555 317.845 31.1595C321.794 30.8635 325.473 31.5103 328.881 33.0999C332.329 34.6866 335.114 37.045 337.233 40.1753C339.393 43.3026 340.627 46.9205 340.935 51.0289C341.243 55.1374 340.564 58.9188 338.898 62.373C337.228 65.7874 334.827 68.5346 331.694 70.6146C328.56 72.6947 325.019 73.8827 321.07 74.1788ZM320.371 64.845C323.721 64.5938 326.31 63.2766 328.137 60.8933C330.004 58.5071 330.8 55.4791 330.524 51.8094C330.246 48.0998 329.008 45.2244 326.809 43.183C324.647 41.0988 321.891 40.1823 318.54 40.4335C315.15 40.6876 312.52 41.9879 310.65 44.3343C308.82 46.6776 308.046 49.724 308.327 53.4735C308.605 57.1831 309.825 60.08 311.987 62.1642C314.185 64.2056 316.98 65.0991 320.371 64.845Z" fill="#FB3318"/>
<path d="M309.974 72.2429L309.129 74.0554L309.138 74.0597L309.974 72.2429ZM301.562 65.1719L299.911 66.2998L299.919 66.3116L299.927 66.3233L301.562 65.1719ZM299.898 42.9742L298.11 42.0795L298.105 42.0876L298.102 42.0957L299.898 42.9742ZM307.162 34.7281L306.065 33.0562L306.056 33.0619L307.162 34.7281ZM328.881 33.0999L328.036 34.9125L328.045 34.9168L328.881 33.0999ZM337.233 40.1753L335.577 41.2968L335.583 41.3044L335.588 41.3119L337.233 40.1753ZM338.898 62.373L340.694 63.2515L340.699 63.242L338.898 62.373ZM331.694 70.6146L332.8 72.2809L332.8 72.2809L331.694 70.6146ZM328.137 60.8933L326.562 59.661L326.556 59.6687L326.55 59.6765L328.137 60.8933ZM326.809 43.183L325.421 44.6228L325.435 44.6359L325.448 44.6487L326.809 43.183ZM310.65 44.3343L309.086 43.0878L309.08 43.0955L309.074 43.1033L310.65 44.3343ZM311.987 62.1642L310.599 63.6041L310.612 63.6171L310.626 63.6299L311.987 62.1642ZM320.921 72.1844C317.295 72.4562 313.937 71.8646 310.811 70.426L309.138 74.0597C312.908 75.7944 316.948 76.4934 321.22 76.1732L320.921 72.1844ZM310.82 70.4303C307.733 68.9907 305.2 66.8641 303.198 64.0206L299.927 66.3233C302.324 69.7284 305.399 72.3157 309.129 74.0554L310.82 70.4303ZM303.214 64.0441C301.264 61.1887 300.134 57.8938 299.851 54.109L295.862 54.408C296.194 58.8401 297.535 62.8208 299.911 66.2998L303.214 64.0441ZM299.851 54.109C299.567 50.3239 300.195 46.9215 301.695 43.8527L298.102 42.0957C296.263 45.8557 295.529 49.9761 295.862 54.408L299.851 54.109ZM301.687 43.8689C303.243 40.7587 305.431 38.278 308.268 36.3944L306.056 33.0619C302.627 35.3383 299.972 38.3551 298.11 42.0795L301.687 43.8689ZM308.26 36.4001C311.137 34.5113 314.369 33.4257 317.995 33.1539L317.696 29.1651C313.424 29.4854 309.534 30.7788 306.065 33.0562L308.26 36.4001ZM317.995 33.1539C321.621 32.8821 324.955 33.4754 328.036 34.9125L329.727 31.2873C325.991 29.5451 321.968 28.8448 317.696 29.1651L317.995 33.1539ZM328.045 34.9168C331.163 36.3515 333.663 38.4701 335.577 41.2968L338.889 39.0538C336.564 35.62 333.496 33.0216 329.717 31.283L328.045 34.9168ZM335.588 41.3119C337.529 44.1226 338.657 47.3934 338.941 51.1785L342.93 50.8794C342.597 46.4475 341.258 42.4826 338.879 39.0387L335.588 41.3119ZM338.941 51.1785C339.225 54.9633 338.599 58.3899 337.096 61.504L340.699 63.242C342.529 59.4477 343.262 55.3116 342.93 50.8794L338.941 51.1785ZM337.101 61.4945C335.586 64.5931 333.421 67.0671 330.587 68.9484L332.8 72.2809C336.232 70.0021 338.871 66.9816 340.694 63.2515L337.101 61.4945ZM330.587 68.9484C327.755 70.8288 324.547 71.9125 320.921 72.1844L321.22 76.1732C325.492 75.8529 329.366 74.5606 332.8 72.2809L330.587 68.9484ZM320.52 66.8394C324.364 66.5512 327.507 65.0021 329.724 62.1101L326.55 59.6765C325.113 61.551 323.079 62.6363 320.221 62.8506L320.52 66.8394ZM329.712 62.1257C331.949 59.2667 332.823 55.7143 332.519 51.6599L328.53 51.9589C328.776 55.244 328.059 57.7474 326.562 59.661L329.712 62.1257ZM332.519 51.6599C332.213 47.5737 330.822 44.1792 328.17 41.7173L325.448 44.6487C327.194 46.2695 328.28 48.6259 328.53 51.9589L332.519 51.6599ZM328.197 41.7432C325.574 39.214 322.234 38.1509 318.391 38.4391L318.69 42.4279C321.548 42.2136 323.721 42.9836 325.421 44.6228L328.197 41.7432ZM318.391 38.4391C314.527 38.7287 311.35 40.2461 309.086 43.0878L312.214 45.5807C313.689 43.7297 315.773 42.6466 318.69 42.4279L318.391 38.4391ZM309.074 43.1033C306.863 45.9346 306.024 49.5136 306.332 53.623L310.321 53.324C310.067 49.9345 310.777 47.4207 312.226 45.5652L309.074 43.1033ZM306.332 53.623C306.638 57.7007 308.004 61.1026 310.599 63.6041L313.375 60.7244C311.646 59.0574 310.572 56.6655 310.321 53.324L306.332 53.623ZM310.626 63.6299C313.289 66.1023 316.656 67.1291 320.52 66.8394L320.221 62.8506C317.304 63.0692 315.082 62.3089 313.347 60.6985L310.626 63.6299Z" fill="white" mask="url(#path-13-outside-7_3_1239)"/>
<mask id="path-15-outside-8_3_1239" maskUnits="userSpaceOnUse" x="348.785" y="24.4669" width="42.5284" height="49.1321" fill="black">
<rect fill="white" x="348.785" y="24.4669" width="42.5284" height="49.1321"/>
<path d="M375.427 70.2689L365.804 54.8756L363.348 55.0111L364.224 70.887L353.979 71.4522L351.659 29.3961L368.853 28.4475C372.168 28.2647 375.016 28.6884 377.396 29.7189C379.816 30.7471 381.662 32.2477 382.932 34.2207C384.201 36.1538 384.903 38.3584 385.04 40.8347C385.194 43.6304 384.533 46.1707 383.057 48.4555C381.62 50.7381 379.39 52.4235 376.365 53.5118L386.989 69.631L375.427 70.2689ZM362.948 47.7622L369.298 47.4118C371.175 47.3082 372.548 46.7718 373.416 45.8025C374.324 44.831 374.731 43.5066 374.639 41.8291C374.551 40.2316 374.002 38.9999 372.993 38.1342C372.024 37.2663 370.6 36.8841 368.723 36.9877L362.373 37.338L362.948 47.7622Z"/>
</mask>
<path d="M375.427 70.2689L365.804 54.8756L363.348 55.0111L364.224 70.887L353.979 71.4522L351.659 29.3961L368.853 28.4475C372.168 28.2647 375.016 28.6884 377.396 29.7189C379.816 30.7471 381.662 32.2477 382.932 34.2207C384.201 36.1538 384.903 38.3584 385.04 40.8347C385.194 43.6304 384.533 46.1707 383.057 48.4555C381.62 50.7381 379.39 52.4235 376.365 53.5118L386.989 69.631L375.427 70.2689ZM362.948 47.7622L369.298 47.4118C371.175 47.3082 372.548 46.7718 373.416 45.8025C374.324 44.831 374.731 43.5066 374.639 41.8291C374.551 40.2316 374.002 38.9999 372.993 38.1342C372.024 37.2663 370.6 36.8841 368.723 36.9877L362.373 37.338L362.948 47.7622Z" fill="#FB3318"/>
<path d="M375.427 70.2689L373.731 71.3291L374.357 72.331L375.537 72.2659L375.427 70.2689ZM365.804 54.8756L367.5 53.8155L366.874 52.8136L365.694 52.8787L365.804 54.8756ZM363.348 55.0111L363.238 53.0142L361.241 53.1243L361.351 55.1213L363.348 55.0111ZM364.224 70.887L364.334 72.884L366.331 72.7738L366.221 70.7768L364.224 70.887ZM353.979 71.4522L351.982 71.5624L352.093 73.5593L354.09 73.4491L353.979 71.4522ZM351.659 29.3961L351.549 27.3992L349.552 27.5093L349.662 29.5063L351.659 29.3961ZM377.396 29.7189L376.601 31.5543L376.614 31.5596L377.396 29.7189ZM382.932 34.2207L381.251 35.3036L381.256 35.3108L381.26 35.3179L382.932 34.2207ZM383.057 48.4555L381.377 47.37L381.37 47.3801L381.364 47.3903L383.057 48.4555ZM376.365 53.5118L375.688 51.6299L373.297 52.4903L374.695 54.6124L376.365 53.5118ZM386.989 69.631L387.099 71.628L390.574 71.4363L388.659 68.5304L386.989 69.631ZM362.948 47.7622L360.951 47.8723L361.061 49.8693L363.058 49.7591L362.948 47.7622ZM373.416 45.8025L371.955 44.437L371.94 44.4525L371.926 44.4684L373.416 45.8025ZM372.993 38.1342L371.659 39.6242L371.675 39.6384L371.691 39.6522L372.993 38.1342ZM362.373 37.338L362.263 35.341L360.266 35.4512L360.376 37.4482L362.373 37.338ZM377.123 69.2088L367.5 53.8155L364.108 55.9358L373.731 71.3291L377.123 69.2088ZM365.694 52.8787L363.238 53.0142L363.458 57.0081L365.914 56.8726L365.694 52.8787ZM361.351 55.1213L362.227 70.9972L366.221 70.7768L365.345 54.901L361.351 55.1213ZM364.114 68.89L353.869 69.4552L354.09 73.4491L364.334 72.884L364.114 68.89ZM355.976 71.342L353.656 29.286L349.662 29.5063L351.982 71.5624L355.976 71.342ZM351.769 31.3931L368.963 30.4445L368.743 26.4506L351.549 27.3992L351.769 31.3931ZM368.963 30.4445C372.052 30.2741 374.574 30.6768 376.601 31.5543L378.191 27.8835C375.457 26.7001 372.284 26.2552 368.743 26.4506L368.963 30.4445ZM376.614 31.5596C378.711 32.4507 380.223 33.7075 381.251 35.3036L384.614 33.1378C383.101 30.7879 380.921 29.0435 378.178 27.8781L376.614 31.5596ZM381.26 35.3179C382.321 36.935 382.924 38.794 383.043 40.9448L387.037 40.7245C386.882 37.9228 386.08 35.3726 384.605 33.1235L381.26 35.3179ZM383.043 40.9448C383.175 43.3318 382.617 45.4512 381.377 47.37L384.737 49.5409C386.449 46.8901 387.214 43.929 387.037 40.7245L383.043 40.9448ZM381.364 47.3903C380.209 49.226 378.376 50.6628 375.688 51.6299L377.042 55.3937C380.404 54.1843 383.032 52.2501 384.749 49.5207L381.364 47.3903ZM374.695 54.6124L385.319 70.7316L388.659 68.5304L378.035 52.4111L374.695 54.6124ZM386.879 67.634L375.317 68.272L375.537 72.2659L387.099 71.628L386.879 67.634ZM363.058 49.7591L369.409 49.4088L369.188 45.4148L362.838 45.7652L363.058 49.7591ZM369.409 49.4088C371.579 49.289 373.553 48.6481 374.906 47.1367L371.926 44.4684C371.543 44.8955 370.772 45.3275 369.188 45.4148L369.409 49.4088ZM374.877 47.1681C376.25 45.6993 376.75 43.7888 376.636 41.719L372.642 41.9393C372.713 43.2244 372.398 43.9628 371.955 44.437L374.877 47.1681ZM376.636 41.719C376.524 39.6962 375.801 37.9077 374.295 36.6162L371.691 39.6522C372.204 40.0921 372.577 40.7669 372.642 41.9393L376.636 41.719ZM374.327 36.6442C372.816 35.2909 370.784 34.8709 368.613 34.9907L368.833 38.9846C370.417 38.8972 371.232 39.2417 371.659 39.6242L374.327 36.6442ZM368.613 34.9907L362.263 35.341L362.483 39.335L368.833 38.9846L368.613 34.9907ZM360.376 37.4482L360.951 47.8723L364.945 47.652L364.37 37.2278L360.376 37.4482Z" fill="white" mask="url(#path-15-outside-8_3_1239)"/>
<mask id="path-17-outside-9_3_1239" maskUnits="userSpaceOnUse" x="412.585" y="23.0242" width="16.5981" height="47.4854" fill="black">
<rect fill="white" x="412.585" y="23.0242" width="16.5981" height="47.4854"/>
<path d="M425.656 25.9716L427.096 68.067L416.842 68.4177L415.402 26.3224L425.656 25.9716Z"/>
</mask>
<path d="M425.656 25.9716L427.096 68.067L416.842 68.4177L415.402 26.3224L425.656 25.9716Z" fill="#FB3318"/>
<path d="M425.656 25.9716L427.655 25.9032L427.587 23.9044L425.588 23.9727L425.656 25.9716ZM427.096 68.067L427.165 70.0658L429.164 69.9974L429.095 67.9986L427.096 68.067ZM416.842 68.4177L414.843 68.4861L414.912 70.4849L416.911 70.4166L416.842 68.4177ZM415.402 26.3224L415.334 24.3235L413.335 24.3919L413.403 26.3907L415.402 26.3224ZM423.657 26.04L425.097 68.1353L429.095 67.9986L427.655 25.9032L423.657 26.04ZM427.028 66.0681L416.774 66.4189L416.911 70.4166L427.165 70.0658L427.028 66.0681ZM418.841 68.3494L417.401 26.254L413.403 26.3907L414.843 68.4861L418.841 68.3494ZM415.471 28.3212L425.725 27.9704L425.588 23.9727L415.334 24.3235L415.471 28.3212Z" fill="white" mask="url(#path-17-outside-9_3_1239)"/>
<mask id="path-19-outside-10_3_1239" maskUnits="userSpaceOnUse" x="436.196" y="21.8516" width="43.8995" height="47.8215" fill="black">
<rect fill="white" x="436.196" y="21.8516" width="43.8995" height="47.8215"/>
<path d="M477.458 66.8934L467.199 67.0915L449.541 41.4477L450.043 67.4228L439.785 67.6209L438.971 25.5088L449.229 25.3107L466.89 51.0745L466.386 24.9793L476.644 24.7812L477.458 66.8934Z"/>
</mask>
<path d="M477.458 66.8934L467.199 67.0915L449.541 41.4477L450.043 67.4228L439.785 67.6209L438.971 25.5088L449.229 25.3107L466.89 51.0745L466.386 24.9793L476.644 24.7812L477.458 66.8934Z" fill="#FB3318"/>
<path d="M477.458 66.8934L477.496 68.893L479.496 68.8544L479.457 66.8548L477.458 66.8934ZM467.199 67.0915L465.552 68.2258L466.162 69.1119L467.238 69.0911L467.199 67.0915ZM449.541 41.4477L451.188 40.3134L447.413 34.8307L447.541 41.4863L449.541 41.4477ZM450.043 67.4228L450.081 69.4225L452.081 69.3838L452.042 67.3842L450.043 67.4228ZM439.785 67.6209L437.785 67.6596L437.824 69.6592L439.823 69.6206L439.785 67.6209ZM438.971 25.5088L438.933 23.5092L436.933 23.5478L436.972 25.5474L438.971 25.5088ZM449.229 25.3107L450.879 24.1799L450.269 23.2902L449.191 23.3111L449.229 25.3107ZM466.89 51.0745L465.24 52.2053L469.019 57.7171L468.89 51.0359L466.89 51.0745ZM466.386 24.9793L466.348 22.9797L464.348 23.0183L464.387 25.018L466.386 24.9793ZM476.644 24.7812L478.644 24.7426L478.605 22.743L476.606 22.7816L476.644 24.7812ZM477.419 64.8937L467.161 65.0919L467.238 69.0911L477.496 68.893L477.419 64.8937ZM468.847 65.9572L451.188 40.3134L447.894 42.582L465.552 68.2258L468.847 65.9572ZM447.541 41.4863L448.043 67.4614L452.042 67.3842L451.541 41.4091L447.541 41.4863ZM450.004 65.4232L439.746 65.6213L439.823 69.6206L450.081 69.4225L450.004 65.4232ZM441.784 67.5823L440.971 25.4702L436.972 25.5474L437.785 67.6596L441.784 67.5823ZM439.01 27.5084L449.268 27.3103L449.191 23.3111L438.933 23.5092L439.01 27.5084ZM447.58 26.4415L465.24 52.2053L468.54 49.9437L450.879 24.1799L447.58 26.4415ZM468.89 51.0359L468.386 24.9407L464.387 25.018L464.891 51.1131L468.89 51.0359ZM466.425 26.979L476.683 26.7809L476.606 22.7816L466.348 22.9797L466.425 26.979ZM474.645 24.8198L475.458 66.932L479.457 66.8548L478.644 24.7426L474.645 24.8198Z" fill="white" mask="url(#path-19-outside-10_3_1239)"/>
<mask id="path-21-outside-11_3_1239" maskUnits="userSpaceOnUse" x="485.966" y="21.771" width="38.0378" height="47.0306" fill="black">
<rect fill="white" x="485.966" y="21.771" width="38.0378" height="47.0306"/>
<path d="M520.989 24.6534L520.995 32.8734L509.835 32.8824L509.862 66.7824L499.602 66.7906L499.575 32.8906L488.415 32.8996L488.409 24.6796L520.989 24.6534Z"/>
</mask>
<path d="M520.989 24.6534L520.995 32.8734L509.835 32.8824L509.862 66.7824L499.602 66.7906L499.575 32.8906L488.415 32.8996L488.409 24.6796L520.989 24.6534Z" fill="#FB3318"/>
<path d="M520.989 24.6534L522.989 24.6518L522.987 22.6518L520.987 22.6534L520.989 24.6534ZM520.995 32.8734L520.997 34.8734L522.997 34.8718L522.995 32.8718L520.995 32.8734ZM509.835 32.8824L509.834 30.8824L507.834 30.884L507.835 32.884L509.835 32.8824ZM509.862 66.7824L509.864 68.7824L511.864 68.7808L511.862 66.7808L509.862 66.7824ZM499.602 66.7906L497.602 66.7922L497.604 68.7922L499.604 68.7906L499.602 66.7906ZM499.575 32.8906L501.575 32.889L501.574 30.889L499.574 30.8906L499.575 32.8906ZM488.415 32.8996L486.415 32.9012L486.417 34.9012L488.417 34.8996L488.415 32.8996ZM488.409 24.6796L488.407 22.6796L486.407 22.6812L486.409 24.6812L488.409 24.6796ZM518.989 24.655L518.995 32.875L522.995 32.8718L522.989 24.6518L518.989 24.655ZM520.994 30.8734L509.834 30.8824L509.837 34.8824L520.997 34.8734L520.994 30.8734ZM507.835 32.884L507.862 66.784L511.862 66.7808L511.835 32.8808L507.835 32.884ZM509.861 64.7824L499.601 64.7906L499.604 68.7906L509.864 68.7824L509.861 64.7824ZM501.602 66.789L501.575 32.889L497.575 32.8922L497.602 66.7922L501.602 66.789ZM499.574 30.8906L488.414 30.8996L488.417 34.8996L499.577 34.8906L499.574 30.8906ZM490.415 32.898L490.409 24.678L486.409 24.6812L486.415 32.9012L490.415 32.898ZM488.41 26.6796L520.99 26.6534L520.987 22.6534L488.407 22.6796L488.41 26.6796Z" fill="white" mask="url(#path-21-outside-11_3_1239)"/>
<mask id="path-23-outside-12_3_1239" maskUnits="userSpaceOnUse" x="526.893" y="21.7475" width="49.8609" height="48.8792" fill="black">
<rect fill="white" x="526.893" y="21.7475" width="49.8609" height="48.8792"/>
<path d="M551.576 67.6061C547.616 67.5344 543.994 66.5487 540.707 64.6489C537.461 62.7498 534.888 60.1428 532.988 56.8278C531.128 53.4736 530.236 49.7369 530.31 45.6175C530.385 41.4982 531.412 37.8162 533.391 34.5715C535.41 31.3275 538.076 28.8154 541.388 27.035C544.741 25.2554 548.397 24.4015 552.357 24.4732C556.316 24.5449 559.919 25.5302 563.165 27.4293C566.451 29.3291 569.004 31.9358 570.825 35.2492C572.685 38.5635 573.578 42.2802 573.503 46.3996C573.429 50.5189 572.401 54.2209 570.422 57.5056C568.443 60.7503 565.797 63.2628 562.484 65.0431C559.171 66.8235 555.535 67.6778 551.576 67.6061ZM551.745 58.2476C555.105 58.3085 557.804 57.2372 559.845 55.0337C561.925 52.831 562.998 49.89 563.065 46.2106C563.132 42.4912 562.166 39.5132 560.166 37.2766C558.207 35.0008 555.548 33.8325 552.188 33.7716C548.789 33.7101 546.049 34.7607 543.97 36.9234C541.93 39.0868 540.877 42.0482 540.809 45.8076C540.741 49.527 541.687 52.5246 543.646 54.8005C545.646 57.037 548.346 58.1861 551.745 58.2476Z"/>
</mask>
<path d="M551.576 67.6061C547.616 67.5344 543.994 66.5487 540.707 64.6489C537.461 62.7498 534.888 60.1428 532.988 56.8278C531.128 53.4736 530.236 49.7369 530.31 45.6175C530.385 41.4982 531.412 37.8162 533.391 34.5715C535.41 31.3275 538.076 28.8154 541.388 27.035C544.741 25.2554 548.397 24.4015 552.357 24.4732C556.316 24.5449 559.919 25.5302 563.165 27.4293C566.451 29.3291 569.004 31.9358 570.825 35.2492C572.685 38.5635 573.578 42.2802 573.503 46.3996C573.429 50.5189 572.401 54.2209 570.422 57.5056C568.443 60.7503 565.797 63.2628 562.484 65.0431C559.171 66.8235 555.535 67.6778 551.576 67.6061ZM551.745 58.2476C555.105 58.3085 557.804 57.2372 559.845 55.0337C561.925 52.831 562.998 49.89 563.065 46.2106C563.132 42.4912 562.166 39.5132 560.166 37.2766C558.207 35.0008 555.548 33.8325 552.188 33.7716C548.789 33.7101 546.049 34.7607 543.97 36.9234C541.93 39.0868 540.877 42.0482 540.809 45.8076C540.741 49.527 541.687 52.5246 543.646 54.8005C545.646 57.037 548.346 58.1861 551.745 58.2476Z" fill="#FB3318"/>
<path d="M540.707 64.6489L539.698 66.3752L539.706 66.3803L540.707 64.6489ZM532.988 56.8278L531.239 57.7976L531.246 57.8101L531.253 57.8225L532.988 56.8278ZM533.391 34.5715L531.693 33.5147L531.688 33.5223L531.683 33.5301L533.391 34.5715ZM541.388 27.035L540.451 25.2684L540.442 25.2733L541.388 27.035ZM563.165 27.4293L562.155 29.1556L562.164 29.1608L563.165 27.4293ZM570.825 35.2492L569.072 36.2122L569.076 36.2202L569.081 36.2282L570.825 35.2492ZM570.422 57.5056L572.129 58.5471L572.135 58.538L570.422 57.5056ZM562.484 65.0431L563.431 66.8049L563.431 66.8049L562.484 65.0431ZM559.845 55.0337L558.391 53.6605L558.384 53.6677L558.377 53.6749L559.845 55.0337ZM560.166 37.2766L558.65 38.5814L558.663 38.5957L558.675 38.6097L560.166 37.2766ZM543.97 36.9234L542.528 35.5372L542.521 35.5443L542.515 35.5515L543.97 36.9234ZM543.646 54.8005L542.131 56.1053L542.143 56.1195L542.155 56.1336L543.646 54.8005ZM551.612 65.6064C547.976 65.5406 544.688 64.64 541.708 62.9174L539.706 66.3803C543.299 68.4574 547.256 69.5282 551.54 69.6058L551.612 65.6064ZM541.717 62.9226C538.778 61.2028 536.452 58.8502 534.723 55.8332L531.253 57.8225C533.324 61.4354 536.145 64.2968 539.698 66.3752L541.717 62.9226ZM534.737 55.8581C533.06 52.8341 532.241 49.4486 532.31 45.6537L528.311 45.5813C528.23 50.0252 529.196 54.1131 531.239 57.7976L534.737 55.8581ZM532.31 45.6537C532.379 41.8587 533.319 38.5292 535.098 35.6129L531.683 33.5301C529.504 37.1032 528.391 41.1377 528.311 45.5813L532.31 45.6537ZM535.089 35.6283C536.926 32.6759 539.335 30.409 542.335 28.7968L540.442 25.2733C536.816 27.2217 533.893 29.9791 531.693 33.5147L535.089 35.6283ZM542.326 28.8016C545.366 27.188 548.685 26.407 552.32 26.4728L552.393 22.4735C548.11 22.3959 544.116 23.3228 540.451 25.2685L542.326 28.8016ZM552.32 26.4728C555.956 26.5387 559.22 27.4388 562.155 29.1556L564.175 25.703C560.617 23.6216 556.676 22.551 552.393 22.4735L552.32 26.4728ZM562.164 29.1608C565.135 30.8786 567.428 33.2201 569.072 36.2122L572.578 34.2863C570.581 30.6514 567.767 27.7796 564.166 25.6978L562.164 29.1608ZM569.081 36.2282C570.753 39.2069 571.572 42.5683 571.504 46.3634L575.503 46.4358C575.583 41.9922 574.617 37.92 572.569 34.2703L569.081 36.2282ZM571.504 46.3634C571.435 50.1582 570.494 53.5119 568.709 56.4732L572.135 58.538C574.309 54.9299 575.422 50.8796 575.503 46.4358L571.504 46.3634ZM568.714 56.4642C566.918 59.4088 564.533 61.6712 561.537 63.2814L563.431 66.8049C567.06 64.8544 569.967 62.0918 572.129 58.547L568.714 56.4642ZM561.537 63.2814C558.542 64.8909 555.247 65.6723 551.612 65.6064L551.54 69.6058C555.823 69.6833 559.8 68.7561 563.431 66.8049L561.537 63.2814ZM551.709 60.2473C555.563 60.3171 558.836 59.0664 561.312 56.3925L558.377 53.6749C556.772 55.408 554.647 56.2998 551.781 56.248L551.709 60.2473ZM561.299 56.4069C563.791 53.7679 564.991 50.3119 565.065 46.2468L561.065 46.1744C561.006 49.4681 560.059 51.8942 558.391 53.6605L561.299 56.4069ZM565.065 46.2468C565.139 42.1498 564.069 38.6409 561.657 35.9435L558.675 38.6097C560.263 40.3855 561.126 42.8326 561.065 46.1744L565.065 46.2468ZM561.682 35.9718C559.305 33.2101 556.078 31.8417 552.225 31.772L552.152 35.7713C555.017 35.8232 557.11 36.7914 558.65 38.5814L561.682 35.9718ZM552.225 31.772C548.35 31.7018 545.047 32.9179 542.528 35.5372L545.412 38.3096C547.052 36.6035 549.227 35.7184 552.152 35.7713L552.225 31.772ZM542.515 35.5515C540.051 38.1653 538.883 41.6511 538.809 45.7714L542.808 45.8438C542.87 42.4453 543.81 40.0083 545.425 38.2953L542.515 35.5515ZM538.809 45.7714C538.735 49.8599 539.779 53.3738 542.131 56.1053L545.162 53.4957C543.595 51.6754 542.748 49.1941 542.808 45.8438L538.809 45.7714ZM542.155 56.1336C544.577 58.8423 547.835 60.1772 551.709 60.2473L551.781 56.248C548.857 56.195 546.715 55.2317 545.137 53.4674L542.155 56.1336Z" fill="white" mask="url(#path-23-outside-12_3_1239)"/>
<mask id="path-25-outside-13_3_1239" maskUnits="userSpaceOnUse" x="595.76" y="23.311" width="49.0783" height="49.0783" fill="black">
<rect fill="white" x="595.76" y="23.311" width="49.0783" height="49.0783"/>
<path d="M640.552 28.1263L624.711 55.6378L624.081 69.5435L613.832 69.0793L614.461 55.1736L601.172 26.3428L612.8 26.8694L620.154 44.8606L629.044 27.6051L640.552 28.1263Z"/>
</mask>
<path d="M640.552 28.1263L624.711 55.6378L624.081 69.5435L613.832 69.0793L614.461 55.1736L601.172 26.3428L612.8 26.8694L620.154 44.8606L629.044 27.6051L640.552 28.1263Z" fill="#FB3318"/>
<path d="M640.552 28.1263L642.285 29.1243L643.924 26.277L640.642 26.1283L640.552 28.1263ZM624.711 55.6378L622.978 54.6398L622.735 55.0613L622.713 55.5473L624.711 55.6378ZM624.081 69.5435L623.991 71.5415L625.989 71.632L626.079 69.634L624.081 69.5435ZM613.832 69.0793L611.834 68.9888L611.743 70.9868L613.741 71.0773L613.832 69.0793ZM614.461 55.1736L616.459 55.2641L616.481 54.7781L616.278 54.3364L614.461 55.1736ZM601.172 26.3428L601.263 24.3449L597.98 24.1962L599.356 27.18L601.172 26.3428ZM612.8 26.8694L614.652 26.1127L614.168 24.9293L612.891 24.8715L612.8 26.8694ZM620.154 44.8606L618.302 45.6173L619.944 49.6342L621.932 45.7765L620.154 44.8606ZM629.044 27.6051L629.134 25.6071L627.853 25.5491L627.266 26.6891L629.044 27.6051ZM638.819 27.1283L622.978 54.6398L626.444 56.6357L642.285 29.1243L638.819 27.1283ZM622.713 55.5473L622.083 69.453L626.079 69.634L626.709 55.7283L622.713 55.5473ZM624.172 67.5456L613.922 67.0814L613.741 71.0773L623.991 71.5415L624.172 67.5456ZM615.83 69.1698L616.459 55.2641L612.463 55.0831L611.834 68.9888L615.83 69.1698ZM616.278 54.3364L602.989 25.5056L599.356 27.18L612.645 56.0108L616.278 54.3364ZM601.082 28.3408L612.71 28.8674L612.891 24.8715L601.263 24.3449L601.082 28.3408ZM610.949 27.6261L618.302 45.6173L622.005 44.1039L614.652 26.1127L610.949 27.6261ZM621.932 45.7765L630.822 28.5211L627.266 26.6891L618.376 43.9446L621.932 45.7765ZM628.953 29.603L640.461 30.1242L640.642 26.1283L629.134 25.6071L628.953 29.603Z" fill="white" mask="url(#path-25-outside-13_3_1239)"/>
<mask id="path-27-outside-14_3_1239" maskUnits="userSpaceOnUse" x="643.548" y="25.5236" width="52.022" height="51.0893" fill="black">
<rect fill="white" x="643.548" y="25.5236" width="52.022" height="51.0893"/>
<path d="M668.303 72.4519C664.352 72.194 660.779 71.0389 657.586 68.9866C654.433 66.9369 651.985 64.2117 650.243 60.811C648.544 57.373 647.828 53.5984 648.096 49.4871C648.364 45.3758 649.563 41.7462 651.693 38.5982C653.862 35.4528 656.644 33.0689 660.036 31.4464C663.469 29.8266 667.161 29.1456 671.113 29.4035C675.065 29.6614 678.617 30.8152 681.77 32.8649C684.963 34.9172 687.391 37.6411 689.053 41.0366C690.756 44.4346 691.473 48.1893 691.204 52.3006C690.936 56.4118 689.736 60.0614 687.604 63.2493C685.474 66.3973 682.713 68.7825 679.32 70.405C675.927 72.0275 672.255 72.7098 668.303 72.4519ZM668.913 63.1118C672.266 63.3306 675.013 62.3875 677.155 60.2825C679.336 58.1801 680.547 55.2928 680.787 51.6206C681.029 47.9085 680.204 44.8884 678.311 42.5602C676.462 40.1947 673.86 38.9025 670.507 38.6837C667.115 38.4623 664.329 39.3828 662.15 41.4453C660.011 43.5104 658.819 46.4189 658.574 50.1709C658.332 53.883 659.135 56.9218 660.985 59.2873C662.878 61.6155 665.52 62.8903 668.913 63.1118Z"/>
</mask>
<path d="M668.303 72.4519C664.352 72.194 660.779 71.0389 657.586 68.9866C654.433 66.9369 651.985 64.2117 650.243 60.811C648.544 57.373 647.828 53.5984 648.096 49.4871C648.364 45.3758 649.563 41.7462 651.693 38.5982C653.862 35.4528 656.644 33.0689 660.036 31.4464C663.469 29.8266 667.161 29.1456 671.113 29.4035C675.065 29.6614 678.617 30.8152 681.77 32.8649C684.963 34.9172 687.391 37.6411 689.053 41.0366C690.756 44.4346 691.473 48.1893 691.204 52.3006C690.936 56.4118 689.736 60.0614 687.604 63.2493C685.474 66.3973 682.713 68.7825 679.32 70.405C675.927 72.0275 672.255 72.7098 668.303 72.4519ZM668.913 63.1118C672.266 63.3306 675.013 62.3875 677.155 60.2825C679.336 58.1801 680.547 55.2928 680.787 51.6206C681.029 47.9085 680.204 44.8884 678.311 42.5602C676.462 40.1947 673.86 38.9025 670.507 38.6837C667.115 38.4623 664.329 39.3828 662.15 41.4453C660.011 43.5104 658.819 46.4189 658.574 50.1709C658.332 53.883 659.135 56.9218 660.985 59.2873C662.878 61.6155 665.52 62.8903 668.913 63.1118Z" fill="#FB3318"/>
<path d="M657.586 68.9866L656.496 70.6634L656.505 70.669L657.586 68.9866ZM650.243 60.811L648.45 61.6973L648.457 61.7102L648.463 61.7229L650.243 60.811ZM651.693 38.5982L650.047 37.4627L650.041 37.4701L650.036 37.4776L651.693 38.5982ZM660.036 31.4464L659.183 29.6377L659.174 29.6421L660.036 31.4464ZM681.77 32.8649L680.68 34.5418L680.689 34.5473L681.77 32.8649ZM689.053 41.0366L687.257 41.916L687.261 41.9242L687.265 41.9324L689.053 41.0366ZM687.604 63.2493L689.26 64.3699L689.266 64.3612L687.604 63.2493ZM679.32 70.405L680.183 72.2093L680.183 72.2093L679.32 70.405ZM677.155 60.2825L675.767 58.8424L675.76 58.8492L675.753 58.8561L677.155 60.2825ZM678.311 42.5602L676.736 43.7922L676.748 43.8071L676.759 43.8217L678.311 42.5602ZM662.15 41.4453L660.775 39.9928L660.768 39.9996L660.761 40.0064L662.15 41.4453ZM660.985 59.2873L659.41 60.5194L659.421 60.5342L659.433 60.5488L660.985 59.2873ZM668.434 70.4561C664.805 70.2193 661.563 69.165 658.668 67.3041L656.505 70.669C659.996 72.9128 663.898 74.1686 668.173 74.4476L668.434 70.4561ZM658.676 67.3097C655.821 65.4535 653.609 62.9941 652.023 59.899L648.463 61.7229C650.362 65.4292 653.045 68.4202 656.496 70.6634L658.676 67.3097ZM652.036 59.9246C650.504 56.8251 649.845 53.4047 650.092 49.6174L646.1 49.3568C645.811 53.792 646.583 57.9208 648.45 61.6973L652.036 59.9246ZM650.092 49.6174C650.339 45.8297 651.436 42.5482 653.349 39.7188L650.036 37.4776C647.691 40.9443 646.39 44.922 646.1 49.3568L650.092 49.6174ZM653.339 39.7338C655.314 36.8711 657.827 34.72 660.899 33.2507L659.174 29.6421C655.46 31.4178 652.411 34.0346 650.047 37.4627L653.339 39.7338ZM660.89 33.2552C664.002 31.7864 667.354 31.1624 670.983 31.3992L671.243 27.4077C666.968 27.1287 662.936 27.8667 659.183 29.6377L660.89 33.2552ZM670.983 31.3992C674.611 31.636 677.83 32.6888 680.68 34.5417L682.86 31.188C679.404 28.9415 675.518 27.6867 671.243 27.4077L670.983 31.3992ZM680.689 34.5473C683.576 36.4031 685.756 38.8498 687.257 41.916L690.85 40.1571C689.026 36.4323 686.35 33.4313 682.852 31.1824L680.689 34.5473ZM687.265 41.9324C688.795 44.9865 689.456 48.3827 689.209 52.1703L693.2 52.4308C693.49 47.9959 692.716 43.8828 690.842 40.1408L687.265 41.9324ZM689.209 52.1703C688.961 55.9577 687.864 59.2634 685.941 62.1374L689.266 64.3612C691.608 60.8594 692.911 56.8659 693.2 52.4308L689.209 52.1703ZM685.947 62.1287C684.015 64.9856 681.526 67.1332 678.457 68.6007L680.183 72.2093C683.9 70.4318 686.934 67.809 689.26 64.3699L685.947 62.1287ZM678.457 68.6007C675.39 70.0674 672.062 70.6929 668.434 70.4561L668.173 74.4476C672.448 74.7266 676.464 73.9876 680.183 72.2093L678.457 68.6007ZM668.783 65.1075C672.629 65.3585 675.958 64.2632 678.557 61.7089L675.753 58.8561C674.068 60.5118 671.903 61.3026 669.043 61.116L668.783 65.1075ZM678.543 61.7226C681.156 59.2038 682.518 55.808 682.782 51.7509L678.791 51.4904C678.576 54.7776 677.516 57.1565 675.767 58.8424L678.543 61.7226ZM682.782 51.7509C683.049 47.6619 682.146 44.1066 679.863 41.2987L676.759 43.8217C678.262 45.6702 679.009 48.1551 678.791 51.4904L682.782 51.7509ZM679.887 41.3282C677.642 38.4577 674.484 36.939 670.638 36.688L670.377 40.6795C673.237 40.8661 675.281 41.9317 676.736 43.7922L679.887 41.3282ZM670.638 36.688C666.771 36.4356 663.414 37.4949 660.775 39.9928L663.525 42.8978C665.243 41.2708 667.458 40.489 670.377 40.6795L670.638 36.688ZM660.761 40.0064C658.176 42.5014 656.846 45.9285 656.578 50.0407L660.57 50.3012C660.791 46.9094 661.845 44.5193 663.539 42.8842L660.761 40.0064ZM656.578 50.0407C656.312 54.1211 657.19 57.6803 659.41 60.5194L662.561 58.0553C661.081 56.1634 660.351 53.6449 660.57 50.3012L656.578 50.0407ZM659.433 60.5488C661.725 63.3685 664.916 64.8552 668.783 65.1075L669.043 61.116C666.124 60.9255 664.03 59.8625 662.537 58.0258L659.433 60.5488Z" fill="white" mask="url(#path-27-outside-14_3_1239)"/>
<mask id="path-29-outside-15_3_1239" maskUnits="userSpaceOnUse" x="698.304" y="29.2665" width="43.9524" height="51.2401" fill="black">
<rect fill="white" x="698.304" y="29.2665" width="43.9524" height="51.2401"/>
<path d="M714.91 33.2289L712.758 58.3369C712.543 60.8477 712.995 62.8335 714.114 64.2944C715.234 65.7554 716.989 66.5883 719.38 66.7932C721.771 66.9981 723.663 66.4777 725.054 65.232C726.446 63.9862 727.249 62.108 727.464 59.5972L729.616 34.4892L739.838 35.3652L737.692 60.4134C737.371 64.1597 736.302 67.2598 734.486 69.7137C732.67 72.1675 730.35 73.936 727.528 75.0189C724.745 76.1052 721.699 76.5067 718.391 76.2232C715.084 75.9397 712.169 75.0476 709.648 73.5469C707.17 72.0097 705.285 69.881 703.993 67.1607C702.704 64.4005 702.22 61.1473 702.541 57.4011L704.687 32.3529L714.91 33.2289Z"/>
</mask>
<path d="M714.91 33.2289L712.758 58.3369C712.543 60.8477 712.995 62.8335 714.114 64.2944C715.234 65.7554 716.989 66.5883 719.38 66.7932C721.771 66.9981 723.663 66.4777 725.054 65.232C726.446 63.9862 727.249 62.108 727.464 59.5972L729.616 34.4892L739.838 35.3652L737.692 60.4134C737.371 64.1597 736.302 67.2598 734.486 69.7137C732.67 72.1675 730.35 73.936 727.528 75.0189C724.745 76.1052 721.699 76.5067 718.391 76.2232C715.084 75.9397 712.169 75.0476 709.648 73.5469C707.17 72.0097 705.285 69.881 703.993 67.1607C702.704 64.4005 702.22 61.1473 702.541 57.4011L704.687 32.3529L714.91 33.2289Z" fill="#FB3318"/>
<path d="M714.91 33.2289L716.902 33.3997L717.073 31.407L715.08 31.2362L714.91 33.2289ZM714.114 64.2944L712.527 65.5108L712.527 65.5108L714.114 64.2944ZM725.054 65.232L726.388 66.722L726.388 66.722L725.054 65.232ZM729.616 34.4892L729.787 32.4965L727.794 32.3257L727.623 34.3184L729.616 34.4892ZM739.838 35.3652L741.831 35.536L742.002 33.5433L740.009 33.3725L739.838 35.3652ZM734.486 69.7137L736.094 70.9035L736.094 70.9035L734.486 69.7137ZM727.528 75.0189L726.811 73.1516L726.8 73.1558L727.528 75.0189ZM709.648 73.5469L708.594 75.2464L708.609 75.2561L708.625 75.2654L709.648 73.5469ZM703.993 67.1607L702.18 68.007L702.186 68.019L703.993 67.1607ZM704.687 32.3529L704.858 30.3602L702.865 30.1894L702.694 32.1821L704.687 32.3529ZM712.917 33.0581L710.765 58.1661L714.751 58.5076L716.902 33.3997L712.917 33.0581ZM710.765 58.1661C710.523 60.9885 711.007 63.528 712.527 65.5108L715.702 63.078C714.982 62.139 714.562 60.7068 714.751 58.5076L710.765 58.1661ZM712.527 65.5108C714.084 67.5439 716.438 68.5484 719.209 68.7859L719.551 64.8005C717.54 64.6282 716.383 63.9668 715.702 63.078L712.527 65.5108ZM719.209 68.7859C721.985 69.0237 724.477 68.4334 726.388 66.722L723.72 63.7419C722.849 64.522 721.558 64.9725 719.551 64.8005L719.209 68.7859ZM726.388 66.722C728.276 65.0322 729.214 62.6056 729.457 59.7679L725.471 59.4264C725.284 61.6103 724.616 62.9402 723.72 63.7419L726.388 66.722ZM729.457 59.7679L731.609 34.66L727.623 34.3184L725.471 59.4264L729.457 59.7679ZM729.445 36.4819L739.668 37.3579L740.009 33.3725L729.787 32.4965L729.445 36.4819ZM737.846 35.1945L735.699 60.2426L739.684 60.5842L741.831 35.536L737.846 35.1945ZM735.699 60.2426C735.402 63.7054 734.428 66.4295 732.878 68.5239L736.094 70.9035C738.176 68.09 739.339 64.6139 739.684 60.5842L735.699 60.2426ZM732.878 68.5239C731.286 70.6748 729.275 72.2065 726.811 73.1516L728.244 76.8862C731.426 75.6655 734.053 73.6602 736.094 70.9035L732.878 68.5239ZM726.8 73.1558C724.333 74.1188 721.599 74.4908 718.562 74.2305L718.221 78.2159C721.799 78.5226 725.156 78.0917 728.255 76.882L726.8 73.1558ZM718.562 74.2305C715.516 73.9694 712.9 73.1552 710.671 71.8283L708.625 75.2654C711.438 76.94 714.651 77.91 718.221 78.2159L718.562 74.2305ZM710.702 71.8474C708.562 70.5195 706.932 68.6879 705.799 66.3024L702.186 68.019C703.638 71.074 705.778 73.4999 708.594 75.2464L710.702 71.8474ZM705.805 66.3144C704.695 63.938 704.235 61.0502 704.533 57.5718L700.548 57.2303C700.204 61.2444 700.712 64.8631 702.18 68.007L705.805 66.3144ZM704.533 57.5718L706.68 32.5236L702.694 32.1821L700.548 57.2303L704.533 57.5718ZM704.516 34.3456L714.739 35.2216L715.08 31.2362L704.858 30.3602L704.516 34.3456Z" fill="white" mask="url(#path-29-outside-15_3_1239)"/>
<mask id="path-31-outside-16_3_1239" maskUnits="userSpaceOnUse" x="746.115" y="33.5184" width="44.6714" height="50.9054" fill="black">
<rect fill="white" x="746.115" y="33.5184" width="44.6714" height="50.9054"/>
<path d="M770.391 80.7913L763.333 64.0665L760.886 63.8106L759.232 79.6244L749.028 78.5573L753.409 36.6657L770.535 38.4567C773.837 38.802 776.582 39.6722 778.768 41.0672C780.995 42.4663 782.579 44.2407 783.521 46.3903C784.466 48.5001 784.81 50.7883 784.552 53.2548C784.261 56.0396 783.205 58.4429 781.385 60.4645C779.605 62.4904 777.135 63.8006 773.976 64.3953L781.909 81.9958L770.391 80.7913ZM761.641 56.59L767.967 57.2515C769.836 57.447 771.277 57.1351 772.287 56.3158C773.338 55.5006 773.95 54.2576 774.125 52.5867C774.292 50.9954 773.945 49.6923 773.086 48.6774C772.267 47.6668 770.922 47.0636 769.052 46.8681L762.727 46.2066L761.641 56.59Z"/>
</mask>
<path d="M770.391 80.7913L763.333 64.0665L760.886 63.8106L759.232 79.6244L749.028 78.5573L753.409 36.6657L770.535 38.4567C773.837 38.802 776.582 39.6722 778.768 41.0672C780.995 42.4663 782.579 44.2407 783.521 46.3903C784.466 48.5001 784.81 50.7883 784.552 53.2548C784.261 56.0396 783.205 58.4429 781.385 60.4645C779.605 62.4904 777.135 63.8006 773.976 64.3953L781.909 81.9958L770.391 80.7913ZM761.641 56.59L767.967 57.2515C769.836 57.447 771.277 57.1351 772.287 56.3158C773.338 55.5006 773.95 54.2576 774.125 52.5867C774.292 50.9954 773.945 49.6923 773.086 48.6774C772.267 47.6668 770.922 47.0636 769.052 46.8681L762.727 46.2066L761.641 56.59Z" fill="#FB3318"/>
<path d="M770.391 80.7913L768.549 81.569L769.008 82.6576L770.183 82.7805L770.391 80.7913ZM763.333 64.0665L765.175 63.2888L764.716 62.2002L763.541 62.0773L763.333 64.0665ZM760.886 63.8106L761.094 61.8215L759.105 61.6135L758.897 63.6026L760.886 63.8106ZM759.232 79.6244L759.024 81.6135L761.013 81.8216L761.221 79.8324L759.232 79.6244ZM749.028 78.5573L747.039 78.3493L746.831 80.3384L748.82 80.5464L749.028 78.5573ZM753.409 36.6657L753.617 34.6766L751.628 34.4685L751.42 36.4577L753.409 36.6657ZM778.768 41.0672L777.693 42.7533L777.704 42.7606L778.768 41.0672ZM783.521 46.3903L781.689 47.1927L781.692 47.2006L781.696 47.2084L783.521 46.3903ZM781.385 60.4645L779.899 59.1263L779.891 59.1353L779.883 59.1443L781.385 60.4645ZM773.976 64.3953L773.606 62.4298L771.109 62.9L772.153 65.217L773.976 64.3953ZM781.909 81.9958L781.701 83.9849L785.162 84.3469L783.732 81.174L781.909 81.9958ZM761.641 56.59L759.652 56.382L759.444 58.3711L761.433 58.5792L761.641 56.59ZM772.287 56.3158L771.061 54.7357L771.044 54.7488L771.028 54.7622L772.287 56.3158ZM773.086 48.6774L771.532 49.9369L771.546 49.9534L771.56 49.9697L773.086 48.6774ZM762.727 46.2066L762.935 44.2175L760.946 44.0095L760.738 45.9986L762.727 46.2066ZM772.234 80.0137L765.175 63.2888L761.49 64.8442L768.549 81.569L772.234 80.0137ZM763.541 62.0773L761.094 61.8215L760.678 65.7998L763.125 66.0556L763.541 62.0773ZM758.897 63.6026L757.243 79.4164L761.221 79.8324L762.875 64.0186L758.897 63.6026ZM759.44 77.6352L749.236 76.5681L748.82 80.5464L759.024 81.6135L759.44 77.6352ZM751.017 78.7653L755.398 36.8737L751.42 36.4577L747.039 78.3493L751.017 78.7653ZM753.201 38.6549L770.327 40.4459L770.743 36.4676L753.617 34.6766L753.201 38.6549ZM770.327 40.4459C773.404 40.7676 775.831 41.5654 777.693 42.7533L779.844 39.381C777.333 37.779 774.27 36.8364 770.743 36.4676L770.327 40.4459ZM777.704 42.7606C779.634 43.9731 780.927 45.4538 781.689 47.1927L785.353 45.5879C784.231 43.0276 782.356 40.9596 779.833 39.3738L777.704 42.7606ZM781.696 47.2084C782.487 48.9732 782.787 50.9044 782.563 53.0468L786.541 53.4628C786.833 50.6721 786.446 48.027 785.346 45.5722L781.696 47.2084ZM782.563 53.0468C782.314 55.4244 781.427 57.4285 779.899 59.1263L782.872 61.8027C784.983 59.4572 786.208 56.6549 786.541 53.4628L782.563 53.0468ZM779.883 59.1443C778.451 60.7735 776.414 61.9013 773.606 62.4298L774.346 66.3607C777.857 65.6999 780.759 64.2072 782.887 61.7848L779.883 59.1443ZM772.153 65.217L780.085 82.8175L783.732 81.174L775.8 63.5735L772.153 65.217ZM782.117 80.0066L770.599 78.8022L770.183 82.7805L781.701 83.9849L782.117 80.0066ZM761.433 58.5792L767.759 59.2406L768.175 55.2623L761.849 54.6008L761.433 58.5792ZM767.759 59.2406C769.921 59.4667 771.971 59.147 773.547 57.8694L771.028 54.7622C770.582 55.1232 769.752 55.4273 768.175 55.2623L767.759 59.2406ZM773.513 57.8959C775.102 56.6634 775.899 54.8565 776.114 52.7947L772.136 52.3787C772.002 53.6587 771.574 54.3379 771.061 54.7357L773.513 57.8959ZM776.114 52.7947C776.325 50.7799 775.894 48.8993 774.613 47.3852L771.56 49.9697C771.996 50.4854 772.258 51.2109 772.136 52.3787L776.114 52.7947ZM774.64 47.418C773.362 45.842 771.422 45.105 769.26 44.8789L768.844 48.8573C770.422 49.0222 771.171 49.4915 771.532 49.9369L774.64 47.418ZM769.26 44.8789L762.935 44.2175L762.519 48.1958L768.844 48.8573L769.26 44.8789ZM760.738 45.9986L759.652 56.382L763.63 56.798L764.716 46.4146L760.738 45.9986Z" fill="white" mask="url(#path-31-outside-16_3_1239)"/>
<mask id="path-33-outside-17_3_1239" maskUnits="userSpaceOnUse" x="807.495" y="40.3892" width="42.8647" height="52.359" fill="black">
<rect fill="white" x="807.495" y="40.3892" width="42.8647" height="52.359"/>
<path d="M826.629 87.87C823.575 87.474 820.902 86.6233 818.611 85.3178C816.32 84.0124 814.566 82.2927 813.35 80.1586C812.174 78.0297 811.724 75.5916 812 72.8442L822.829 74.2483C822.787 75.8159 823.168 77.0754 823.973 78.0267C824.782 78.9384 825.921 79.4894 827.389 79.6797C828.896 79.8751 830.13 79.6922 831.09 79.131C832.055 78.5301 832.617 77.6149 832.777 76.3852C832.911 75.3538 832.664 74.4546 832.038 73.6877C831.451 72.9259 830.67 72.26 829.695 71.6899C828.76 71.125 827.396 70.444 825.604 69.6469C823.014 68.4641 820.921 67.3457 819.323 66.2915C817.725 65.2373 816.417 63.8173 815.398 62.0315C814.379 60.2456 814.04 58.0437 814.379 55.4256C814.883 51.5381 816.685 48.6861 819.784 46.8695C822.889 45.0133 826.702 44.3783 831.224 44.9647C835.826 45.5613 839.39 47.1529 841.919 49.7394C844.452 52.2863 845.564 55.5362 845.253 59.4891L834.245 58.0618C834.341 56.7028 833.981 55.5873 833.166 54.7154C832.357 53.8037 831.238 53.2553 829.81 53.0701C828.58 52.9107 827.545 53.1193 826.704 53.6959C825.868 54.2329 825.37 55.1162 825.211 56.346C825.036 57.6947 825.534 58.8282 826.706 59.7464C827.878 60.6647 829.756 61.7351 832.34 62.9575C834.919 64.2196 836.988 65.3752 838.546 66.4242C840.143 67.4784 841.454 68.8786 842.478 70.6247C843.502 72.3709 843.852 74.4935 843.528 76.9926C843.219 79.3727 842.324 81.4548 840.843 83.2391C839.401 85.0286 837.455 86.3493 835.005 87.2014C832.555 88.0534 829.763 88.2763 826.629 87.87Z"/>
</mask>
<path d="M826.629 87.87C823.575 87.474 820.902 86.6233 818.611 85.3178C816.32 84.0124 814.566 82.2927 813.35 80.1586C812.174 78.0297 811.724 75.5916 812 72.8442L822.829 74.2483C822.787 75.8159 823.168 77.0754 823.973 78.0267C824.782 78.9384 825.921 79.4894 827.389 79.6797C828.896 79.8751 830.13 79.6922 831.09 79.131C832.055 78.5301 832.617 77.6149 832.777 76.3852C832.911 75.3538 832.664 74.4546 832.038 73.6877C831.451 72.9259 830.67 72.26 829.695 71.6899C828.76 71.125 827.396 70.444 825.604 69.6469C823.014 68.4641 820.921 67.3457 819.323 66.2915C817.725 65.2373 816.417 63.8173 815.398 62.0315C814.379 60.2456 814.04 58.0437 814.379 55.4256C814.883 51.5381 816.685 48.6861 819.784 46.8695C822.889 45.0133 826.702 44.3783 831.224 44.9647C835.826 45.5613 839.39 47.1529 841.919 49.7394C844.452 52.2863 845.564 55.5362 845.253 59.4891L834.245 58.0618C834.341 56.7028 833.981 55.5873 833.166 54.7154C832.357 53.8037 831.238 53.2553 829.81 53.0701C828.58 52.9107 827.545 53.1193 826.704 53.6959C825.868 54.2329 825.37 55.1162 825.211 56.346C825.036 57.6947 825.534 58.8282 826.706 59.7464C827.878 60.6647 829.756 61.7351 832.34 62.9575C834.919 64.2196 836.988 65.3752 838.546 66.4242C840.143 67.4784 841.454 68.8786 842.478 70.6247C843.502 72.3709 843.852 74.4935 843.528 76.9926C843.219 79.3727 842.324 81.4548 840.843 83.2391C839.401 85.0286 837.455 86.3493 835.005 87.2014C832.555 88.0534 829.763 88.2763 826.629 87.87Z" fill="#FB3318"/>
<path d="M818.611 85.3178L817.621 87.0555L817.621 87.0555L818.611 85.3178ZM813.35 80.1586L811.6 81.1257L811.606 81.1372L811.613 81.1486L813.35 80.1586ZM812 72.8442L812.257 70.8608L810.215 70.5961L810.01 72.6446L812 72.8442ZM822.829 74.2483L824.828 74.3018L824.877 72.4971L823.086 72.2649L822.829 74.2483ZM823.973 78.0267L822.446 79.3181L822.461 79.3366L822.477 79.3547L823.973 78.0267ZM831.09 79.131L832.099 80.8577L832.123 80.8436L832.147 80.8289L831.09 79.131ZM832.038 73.6877L830.453 74.9083L830.471 74.931L830.489 74.9531L832.038 73.6877ZM829.695 71.6899L828.661 73.4018L828.673 73.4092L828.685 73.4164L829.695 71.6899ZM825.604 69.6469L824.773 71.4661L824.782 71.4703L824.791 71.4743L825.604 69.6469ZM815.398 62.0315L817.135 61.0404L817.135 61.0404L815.398 62.0315ZM819.784 46.8695L820.796 48.595L820.803 48.5906L820.811 48.5861L819.784 46.8695ZM841.919 49.7394L840.489 51.1375L840.495 51.1437L840.501 51.1499L841.919 49.7394ZM845.253 59.4891L844.996 61.4725L847.082 61.7429L847.247 59.6459L845.253 59.4891ZM834.245 58.0618L832.25 57.9216L832.118 59.8028L833.988 60.0452L834.245 58.0618ZM833.166 54.7154L831.671 56.0433L831.688 56.0622L831.705 56.0807L833.166 54.7154ZM826.704 53.6959L827.785 55.3787L827.81 55.3625L827.835 55.3455L826.704 53.6959ZM826.706 59.7464L827.94 58.1723L827.94 58.1723L826.706 59.7464ZM832.34 62.9575L833.219 61.161L833.207 61.1552L833.195 61.1496L832.34 62.9575ZM838.546 66.4242L837.429 68.0832L837.436 68.0884L837.444 68.0936L838.546 66.4242ZM842.478 70.6247L840.753 71.6364L840.753 71.6364L842.478 70.6247ZM840.843 83.2391L839.304 81.9614L839.295 81.9727L839.285 81.9842L840.843 83.2391ZM835.005 87.2014L834.348 85.3124L834.348 85.3124L835.005 87.2014ZM826.886 85.8866C824.047 85.5185 821.631 84.737 819.601 83.5801L817.621 87.0555C820.172 88.5095 823.102 89.4295 826.372 89.8534L826.886 85.8866ZM819.601 83.5801C817.598 82.4387 816.113 80.9679 815.088 79.1686L811.613 81.1486C813.019 83.6174 815.042 85.586 817.621 87.0555L819.601 83.5801ZM815.101 79.1915C814.147 77.465 813.749 75.4437 813.99 73.0438L810.01 72.6446C809.699 75.7395 810.202 78.5945 811.6 81.1257L815.101 79.1915ZM811.743 74.8276L822.572 76.2317L823.086 72.2649L812.257 70.8608L811.743 74.8276ZM820.83 74.1949C820.778 76.1219 821.248 77.902 822.446 79.3181L825.5 76.7354C825.089 76.2489 824.796 75.51 824.828 74.3018L820.83 74.1949ZM822.477 79.3547C823.672 80.7002 825.292 81.4246 827.131 81.6631L827.646 77.6963C826.549 77.5541 825.893 77.1766 825.468 76.6988L822.477 79.3547ZM827.131 81.6631C828.919 81.8948 830.638 81.7115 832.099 80.8577L830.081 77.4043C829.621 77.6729 828.873 77.8554 827.646 77.6963L827.131 81.6631ZM832.147 80.8289C833.672 79.8797 834.532 78.4055 834.76 76.6423L830.794 76.128C830.703 76.8242 830.439 77.1806 830.033 77.4331L832.147 80.8289ZM834.76 76.6423C834.961 75.096 834.58 73.6388 833.586 72.4223L830.489 74.9531C830.748 75.2705 830.86 75.6116 830.794 76.128L834.76 76.6423ZM833.622 72.4671C832.853 71.469 831.864 70.6413 830.705 69.9635L828.685 73.4164C829.476 73.8787 830.048 74.3829 830.453 74.9083L833.622 72.4671ZM830.729 69.978C829.688 69.3489 828.235 68.6283 826.416 67.8194L824.791 71.4743C826.557 72.2596 827.832 72.9011 828.661 73.4018L830.729 69.978ZM826.435 67.8277C823.899 66.6693 821.906 65.5993 820.425 64.6221L818.222 67.9608C819.936 69.0921 822.13 70.259 824.773 71.4661L826.435 67.8277ZM820.425 64.6221C819.108 63.7536 818.01 62.574 817.135 61.0404L813.661 63.0225C814.824 65.0606 816.342 66.721 818.222 67.9608L820.425 64.6221ZM817.135 61.0404C816.387 59.7283 816.063 57.9926 816.363 55.6827L812.396 55.1684C812.016 58.0948 812.372 60.763 813.661 63.0225L817.135 61.0404ZM816.363 55.6827C816.795 52.3444 818.283 50.0674 820.796 48.595L818.773 45.1441C815.086 47.3048 812.971 50.7319 812.396 55.1684L816.363 55.6827ZM820.811 48.5861C823.438 47.015 826.772 46.4042 830.967 46.9481L831.481 42.9813C826.632 42.3525 822.339 43.0116 818.758 45.153L820.811 48.5861ZM830.967 46.9481C835.25 47.5034 838.354 48.9536 840.489 51.1375L843.349 48.3414C840.427 45.3522 836.401 43.6191 831.481 42.9813L830.967 46.9481ZM840.501 51.1499C842.578 53.2374 843.53 55.893 843.259 59.3323L847.247 59.6459C847.598 55.1795 846.327 51.3353 843.337 48.329L840.501 51.1499ZM845.51 57.5057L834.502 56.0784L833.988 60.0452L844.996 61.4725L845.51 57.5057ZM836.24 58.2021C836.369 56.3752 835.877 54.6871 834.628 53.35L831.705 56.0807C832.085 56.4875 832.313 57.0305 832.25 57.9216L836.24 58.2021ZM834.662 53.3874C833.476 52.0518 831.882 51.3221 830.067 51.0867L829.553 55.0535C830.594 55.1885 831.238 55.5556 831.671 56.0433L834.662 53.3874ZM830.067 51.0867C828.46 50.8784 826.903 51.1344 825.573 52.0464L827.835 55.3455C828.187 55.1042 828.701 54.9431 829.553 55.0535L830.067 51.0867ZM825.623 52.0132C824.171 52.946 823.442 54.4318 823.227 56.0888L827.194 56.6031C827.298 55.8007 827.565 55.5199 827.785 55.3787L825.623 52.0132ZM823.227 56.0888C822.952 58.2139 823.808 60.0166 825.472 61.3206L827.94 58.1723C827.26 57.6397 827.12 57.1754 827.194 56.6031L823.227 56.0888ZM825.472 61.3206C826.824 62.3798 828.865 63.5262 831.485 64.7654L833.195 61.1496C830.646 59.9439 828.931 58.9496 827.94 58.1723L825.472 61.3206ZM831.461 64.7539C833.996 65.9944 835.975 67.1046 837.429 68.0832L839.663 64.7652C838 63.6457 835.842 62.4448 833.219 61.161L831.461 64.7539ZM837.444 68.0936C838.772 68.9695 839.875 70.1388 840.753 71.6364L844.203 69.613C843.034 67.6184 841.515 65.9873 839.647 64.7548L837.444 68.0936ZM840.753 71.6364C841.502 72.9142 841.826 74.5663 841.545 76.7354L845.511 77.2497C845.878 74.4207 845.502 71.8275 844.203 69.613L840.753 71.6364ZM841.545 76.7354C841.283 78.7538 840.535 80.4788 839.304 81.9614L842.381 84.5169C844.114 82.4308 845.156 79.9915 845.511 77.2497L841.545 76.7354ZM839.285 81.9842C838.107 83.4459 836.491 84.567 834.348 85.3124L835.662 89.0904C838.418 88.1316 840.694 86.6112 842.4 84.4941L839.285 81.9842ZM834.348 85.3124C832.248 86.0426 829.778 86.2616 826.886 85.8866L826.372 89.8534C829.747 90.2911 832.861 90.0643 835.662 89.0904L834.348 85.3124Z" fill="white" mask="url(#path-33-outside-17_3_1239)"/>
<mask id="path-35-outside-18_3_1239" maskUnits="userSpaceOnUse" x="848.197" y="45.7859" width="44.4183" height="52.017" fill="black">
<rect fill="white" x="848.197" y="45.7859" width="44.4183" height="52.017"/>
<path d="M889.249 53.7174L888.056 61.8504L877.015 60.2309L872.095 93.7721L861.944 92.2832L866.863 58.742L855.821 57.1225L857.014 48.9895L889.249 53.7174Z"/>
</mask>
<path d="M889.249 53.7174L888.056 61.8504L877.015 60.2309L872.095 93.7721L861.944 92.2832L866.863 58.742L855.821 57.1225L857.014 48.9895L889.249 53.7174Z" fill="#FB3318"/>
<path d="M889.249 53.7174L891.228 54.0077L891.518 52.0289L889.54 51.7386L889.249 53.7174ZM888.056 61.8504L887.766 63.8293L889.745 64.1195L890.035 62.1407L888.056 61.8504ZM877.015 60.2309L877.305 58.2521L875.326 57.9619L875.036 59.9407L877.015 60.2309ZM872.095 93.7721L871.805 95.7509L873.784 96.0411L874.074 94.0623L872.095 93.7721ZM861.944 92.2832L859.965 91.9929L859.675 93.9717L861.653 94.262L861.944 92.2832ZM866.863 58.742L868.842 59.0322L869.132 57.0534L867.153 56.7632L866.863 58.742ZM855.821 57.1225L853.842 56.8323L853.552 58.8111L855.531 59.1013L855.821 57.1225ZM857.014 48.9895L857.304 47.0107L855.326 46.7204L855.035 48.6993L857.014 48.9895ZM887.27 53.4272L886.078 61.5602L890.035 62.1407L891.228 54.0077L887.27 53.4272ZM888.347 59.8716L877.305 58.2521L876.724 62.2097L887.766 63.8293L888.347 59.8716ZM875.036 59.9407L870.116 93.4818L874.074 94.0623L878.993 60.5212L875.036 59.9407ZM872.385 91.7932L862.234 90.3043L861.653 94.262L871.805 95.7509L872.385 91.7932ZM863.922 92.5734L868.842 59.0322L864.884 58.4518L859.965 91.9929L863.922 92.5734ZM867.153 56.7632L856.112 55.1437L855.531 59.1013L866.573 60.7208L867.153 56.7632ZM857.8 57.4127L858.993 49.2797L855.035 48.6993L853.842 56.8323L857.8 57.4127ZM856.724 50.9683L888.959 55.6963L889.54 51.7386L857.304 47.0107L856.724 50.9683Z" fill="white" mask="url(#path-35-outside-18_3_1239)"/>
<mask id="path-37-outside-19_3_1239" maskUnits="userSpaceOnUse" x="886.704" y="51.5284" width="54.0093" height="54.0093" fill="black">
<rect fill="white" x="886.704" y="51.5284" width="54.0093" height="54.0093"/>
<path d="M936.141 61.3278L917.174 86.7855L914.913 100.521L904.79 98.8543L907.05 85.1191L897.244 54.9256L908.729 56.816L913.916 75.5471L924.774 59.4568L936.141 61.3278Z"/>
</mask>
<path d="M936.141 61.3278L917.174 86.7855L914.913 100.521L904.79 98.8543L907.05 85.1191L897.244 54.9256L908.729 56.816L913.916 75.5471L924.774 59.4568L936.141 61.3278Z" fill="#FB3318"/>
<path d="M936.141 61.3278L937.744 62.5227L939.707 59.8879L936.465 59.3543L936.141 61.3278ZM917.174 86.7855L915.57 85.5906L915.28 85.9807L915.201 86.4606L917.174 86.7855ZM914.913 100.521L914.589 102.494L916.562 102.819L916.887 100.845L914.913 100.521ZM904.79 98.8543L902.816 98.5295L902.491 100.503L904.465 100.828L904.79 98.8543ZM907.05 85.1191L909.024 85.444L909.103 84.964L908.953 84.5013L907.05 85.1191ZM897.244 54.9256L897.569 52.9522L894.327 52.4185L895.342 55.5434L897.244 54.9256ZM908.729 56.816L910.657 56.2823L910.316 55.0502L909.054 54.8426L908.729 56.816ZM913.916 75.5471L911.989 76.0808L913.147 80.263L915.574 76.6658L913.916 75.5471ZM924.774 59.4568L925.098 57.4834L923.833 57.2751L923.116 58.3381L924.774 59.4568ZM934.537 60.1329L915.57 85.5906L918.778 87.9803L937.744 62.5227L934.537 60.1329ZM915.201 86.4606L912.94 100.196L916.887 100.845L919.148 87.1103L915.201 86.4606ZM915.238 98.5472L905.115 96.8809L904.465 100.828L914.589 102.494L915.238 98.5472ZM906.763 99.1791L909.024 85.444L905.077 84.7943L902.816 98.5295L906.763 99.1791ZM908.953 84.5013L899.146 54.3078L895.342 55.5434L905.148 85.7369L908.953 84.5013ZM896.919 56.899L908.405 58.7895L909.054 54.8426L897.569 52.9522L896.919 56.899ZM906.802 57.3498L911.989 76.0808L915.844 75.0134L910.657 56.2823L906.802 57.3498ZM915.574 76.6658L926.431 60.5755L923.116 58.3381L912.258 74.4284L915.574 76.6658ZM924.449 61.4303L935.816 63.3012L936.465 59.3543L925.098 57.4834L924.449 61.4303Z" fill="white" mask="url(#path-37-outside-19_3_1239)"/>
<mask id="path-39-outside-20_3_1239" maskUnits="userSpaceOnUse" x="935.944" y="59.8673" width="36.914" height="51.4169" fill="black">
<rect fill="white" x="935.944" y="59.8673" width="36.914" height="51.4169"/>
<path d="M950.484 98.6672L963.709 101.063L962.297 108.856L938.977 104.631L946.485 63.186L956.581 65.015L950.484 98.6672Z"/>
</mask>
<path d="M950.484 98.6672L963.709 101.063L962.297 108.856L938.977 104.631L946.485 63.186L956.581 65.015L950.484 98.6672Z" fill="#FB3318"/>
<path d="M950.484 98.6672L948.516 98.3107L948.16 100.279L950.128 100.635L950.484 98.6672ZM963.709 101.063L965.677 101.42L966.034 99.4517L964.066 99.0952L963.709 101.063ZM962.297 108.856L961.941 110.824L963.909 111.181L964.265 109.213L962.297 108.856ZM938.977 104.631L937.009 104.275L936.652 106.243L938.62 106.599L938.977 104.631ZM946.485 63.186L946.842 61.2181L944.874 60.8615L944.517 62.8295L946.485 63.186ZM956.581 65.015L958.549 65.3716L958.905 63.4036L956.938 63.0471L956.581 65.015ZM950.128 100.635L963.352 103.031L964.066 99.0952L950.841 96.6993L950.128 100.635ZM961.741 100.707L960.329 108.5L964.265 109.213L965.677 101.42L961.741 100.707ZM962.654 106.888L939.333 102.663L938.62 106.599L961.941 110.824L962.654 106.888ZM940.945 104.988L948.453 63.5426L944.517 62.8295L937.009 104.275L940.945 104.988ZM946.129 65.154L956.224 66.983L956.938 63.0471L946.842 61.2181L946.129 65.154ZM954.613 64.6585L948.516 98.3107L952.452 99.0238L958.549 65.3716L954.613 64.6585Z" fill="white" mask="url(#path-39-outside-20_3_1239)"/>
<mask id="path-41-outside-21_3_1239" maskUnits="userSpaceOnUse" x="969.322" y="66.0766" width="39.4676" height="52.0884" fill="black">
<rect fill="white" x="969.322" y="66.0766" width="39.4676" height="52.0884"/>
<path d="M988.97 79.4676L987.33 87.8283L1000.81 90.4732L999.288 98.2451L985.805 95.6002L984.026 104.667L999.276 107.659L997.694 115.725L972.376 110.759L980.484 69.4263L1005.8 74.3928L1004.22 82.459L988.97 79.4676Z"/>
</mask>
<path d="M988.97 79.4676L987.33 87.8283L1000.81 90.4732L999.288 98.2451L985.805 95.6002L984.026 104.667L999.276 107.659L997.694 115.725L972.376 110.759L980.484 69.4263L1005.8 74.3928L1004.22 82.459L988.97 79.4676Z" fill="#FB3318"/>
<path d="M988.97 79.4676L989.355 77.505L987.392 77.12L987.007 79.0826L988.97 79.4676ZM987.33 87.8283L985.367 87.4433L984.982 89.4059L986.945 89.7909L987.33 87.8283ZM1000.81 90.4732L1002.78 90.8582L1003.16 88.8956L1001.2 88.5106L1000.81 90.4732ZM999.288 98.2451L998.903 100.208L1000.87 100.593L1001.25 98.6301L999.288 98.2451ZM985.805 95.6002L986.19 93.6376L984.228 93.2526L983.843 95.2152L985.805 95.6002ZM984.026 104.667L982.064 104.282L981.679 106.245L983.642 106.63L984.026 104.667ZM999.276 107.659L1001.24 108.044L1001.62 106.081L999.661 105.696L999.276 107.659ZM997.694 115.725L997.309 117.688L999.271 118.073L999.656 116.11L997.694 115.725ZM972.376 110.759L970.413 110.374L970.028 112.336L971.991 112.721L972.376 110.759ZM980.484 69.4263L980.869 67.4637L978.906 67.0787L978.521 69.0413L980.484 69.4263ZM1005.8 74.3928L1007.76 74.7778L1008.15 72.8152L1006.19 72.4302L1005.8 74.3928ZM1004.22 82.459L1003.83 84.4216L1005.8 84.8066L1006.18 82.844L1004.22 82.459ZM987.007 79.0826L985.367 87.4433L989.292 88.2133L990.932 79.8526L987.007 79.0826ZM986.945 89.7909L1000.43 92.4358L1001.2 88.5106L987.715 85.8657L986.945 89.7909ZM998.85 90.0882L997.326 97.8601L1001.25 98.6301L1002.78 90.8582L998.85 90.0882ZM999.673 96.2825L986.19 93.6376L985.42 97.5627L998.903 100.208L999.673 96.2825ZM983.843 95.2152L982.064 104.282L985.989 105.052L987.768 95.9851L983.843 95.2152ZM983.642 106.63L998.891 109.621L999.661 105.696L984.411 102.705L983.642 106.63ZM997.313 107.274L995.731 115.34L999.656 116.11L1001.24 108.044L997.313 107.274ZM998.079 113.762L972.761 108.796L971.991 112.721L997.309 117.688L998.079 113.762ZM974.339 111.144L982.447 69.8113L978.521 69.0413L970.413 110.374L974.339 111.144ZM980.099 71.3889L1005.42 76.3554L1006.19 72.4302L980.869 67.4637L980.099 71.3889ZM1003.84 74.0078L1002.26 82.074L1006.18 82.844L1007.76 74.7778L1003.84 74.0078ZM1004.6 80.4964L989.355 77.505L988.585 81.4302L1003.83 84.4216L1004.6 80.4964Z" fill="white" mask="url(#path-41-outside-21_3_1239)"/>
</svg>
